<mxfile host="app.diagrams.net" agent="Mozilla/5.0 (Windows NT 10.0; Win64; x64) AppleWebKit/537.36 (KHTML, like Gecko) Chrome/137.0.0.0 Safari/537.36" version="26.2.14">
  <diagram name="Page-1" id="ROxaPGcLxR9sagEnO0F-">
    <mxGraphModel dx="6005" dy="2503" grid="1" gridSize="10" guides="1" tooltips="1" connect="1" arrows="1" fold="1" page="1" pageScale="1" pageWidth="850" pageHeight="1100" math="0" shadow="0">
      <root>
        <mxCell id="0" />
        <mxCell id="1" parent="0" />
        <mxCell id="zYAFex58_-Hg5FmRaFq3-38" value="LkpVehicleType" style="swimlane;childLayout=stackLayout;horizontal=1;startSize=50;horizontalStack=0;rounded=1;fontSize=14;fontStyle=0;strokeWidth=2;resizeParent=0;resizeLast=1;shadow=0;dashed=0;align=center;arcSize=4;whiteSpace=wrap;html=1;labelBackgroundColor=none;fillColor=#A8DADC;strokeColor=#457B9D;fontColor=#1D3557;" vertex="1" parent="1">
          <mxGeometry x="-2080" y="20" width="160" height="120" as="geometry" />
        </mxCell>
        <mxCell id="zYAFex58_-Hg5FmRaFq3-39" value="&lt;strong data-end=&quot;266&quot; data-start=&quot;249&quot;&gt;VehicleTypeID&lt;/strong&gt; (PK)&lt;div&gt;TypeCode&lt;/div&gt;&lt;div&gt;Label_EN&lt;/div&gt;&lt;div&gt;Label_FA&lt;/div&gt;" style="align=left;strokeColor=none;fillColor=none;spacingLeft=4;spacingRight=4;fontSize=12;verticalAlign=top;resizable=0;rotatable=0;part=1;html=1;whiteSpace=wrap;labelBackgroundColor=none;fontColor=#1D3557;" vertex="1" parent="zYAFex58_-Hg5FmRaFq3-38">
          <mxGeometry y="50" width="160" height="70" as="geometry" />
        </mxCell>
        <mxCell id="zYAFex58_-Hg5FmRaFq3-40" value="LkpVehicleStatus" style="swimlane;childLayout=stackLayout;horizontal=1;startSize=50;horizontalStack=0;rounded=1;fontSize=14;fontStyle=0;strokeWidth=2;resizeParent=0;resizeLast=1;shadow=0;dashed=0;align=center;arcSize=4;whiteSpace=wrap;html=1;labelBackgroundColor=none;fillColor=#A8DADC;strokeColor=#457B9D;fontColor=#1D3557;" vertex="1" parent="1">
          <mxGeometry x="-1840" y="20" width="160" height="120" as="geometry" />
        </mxCell>
        <mxCell id="zYAFex58_-Hg5FmRaFq3-41" value="&lt;div&gt;&lt;strong data-end=&quot;350&quot; data-start=&quot;331&quot;&gt;VehicleStatusID&lt;/strong&gt; (PK)&lt;/div&gt;&lt;div&gt;StatusCode&lt;/div&gt;&lt;div&gt;Label_EN&lt;/div&gt;&lt;div&gt;Label_FA&lt;/div&gt;" style="align=left;strokeColor=none;fillColor=none;spacingLeft=4;spacingRight=4;fontSize=12;verticalAlign=top;resizable=0;rotatable=0;part=1;html=1;whiteSpace=wrap;labelBackgroundColor=none;fontColor=#1D3557;" vertex="1" parent="zYAFex58_-Hg5FmRaFq3-40">
          <mxGeometry y="50" width="160" height="70" as="geometry" />
        </mxCell>
        <mxCell id="zYAFex58_-Hg5FmRaFq3-42" value="LkpRouteStatus" style="swimlane;childLayout=stackLayout;horizontal=1;startSize=50;horizontalStack=0;rounded=1;fontSize=14;fontStyle=0;strokeWidth=2;resizeParent=0;resizeLast=1;shadow=0;dashed=0;align=center;arcSize=4;whiteSpace=wrap;html=1;labelBackgroundColor=none;fillColor=#A8DADC;strokeColor=#457B9D;fontColor=#1D3557;" vertex="1" parent="1">
          <mxGeometry x="-1660" y="20" width="160" height="120" as="geometry" />
        </mxCell>
        <mxCell id="zYAFex58_-Hg5FmRaFq3-43" value="&lt;div&gt;&lt;strong data-end=&quot;432&quot; data-start=&quot;415&quot;&gt;RouteStatusID&lt;/strong&gt; (PK)&lt;/div&gt;&lt;div&gt;StatusCode&lt;/div&gt;&lt;div&gt;Label_EN&lt;/div&gt;&lt;div&gt;Label_FA&lt;/div&gt;" style="align=left;strokeColor=none;fillColor=none;spacingLeft=4;spacingRight=4;fontSize=12;verticalAlign=top;resizable=0;rotatable=0;part=1;html=1;whiteSpace=wrap;labelBackgroundColor=none;fontColor=#1D3557;" vertex="1" parent="zYAFex58_-Hg5FmRaFq3-42">
          <mxGeometry y="50" width="160" height="70" as="geometry" />
        </mxCell>
        <mxCell id="zYAFex58_-Hg5FmRaFq3-44" value="LkpJourneyStatus" style="swimlane;childLayout=stackLayout;horizontal=1;startSize=50;horizontalStack=0;rounded=1;fontSize=14;fontStyle=0;strokeWidth=2;resizeParent=0;resizeLast=1;shadow=0;dashed=0;align=center;arcSize=4;whiteSpace=wrap;html=1;labelBackgroundColor=none;fillColor=#A8DADC;strokeColor=#457B9D;fontColor=#1D3557;" vertex="1" parent="1">
          <mxGeometry x="-1480" y="20" width="160" height="120" as="geometry" />
        </mxCell>
        <mxCell id="zYAFex58_-Hg5FmRaFq3-45" value="&lt;div&gt;&lt;strong style=&quot;background-color: transparent; color: light-dark(rgb(0, 0, 0), rgb(255, 255, 255));&quot; data-end=&quot;518&quot; data-start=&quot;499&quot;&gt;JourneyStatusID&lt;/strong&gt;&lt;span style=&quot;background-color: transparent; color: light-dark(rgb(0, 0, 0), rgb(255, 255, 255));&quot;&gt; (PK)&lt;/span&gt;&lt;/div&gt;&lt;div&gt;&lt;span style=&quot;background-color: transparent; color: light-dark(rgb(0, 0, 0), rgb(255, 255, 255));&quot;&gt;StatusCode&lt;/span&gt;&lt;/div&gt;&lt;div&gt;Label_EN&lt;/div&gt;&lt;div&gt;Label_FA&lt;/div&gt;" style="align=left;strokeColor=none;fillColor=none;spacingLeft=4;spacingRight=4;fontSize=12;verticalAlign=top;resizable=0;rotatable=0;part=1;html=1;whiteSpace=wrap;labelBackgroundColor=none;fontColor=#1D3557;" vertex="1" parent="zYAFex58_-Hg5FmRaFq3-44">
          <mxGeometry y="50" width="160" height="70" as="geometry" />
        </mxCell>
        <mxCell id="zYAFex58_-Hg5FmRaFq3-48" value="LkpDeviceType" style="swimlane;childLayout=stackLayout;horizontal=1;startSize=50;horizontalStack=0;rounded=1;fontSize=14;fontStyle=0;strokeWidth=2;resizeParent=0;resizeLast=1;shadow=0;dashed=0;align=center;arcSize=4;whiteSpace=wrap;html=1;labelBackgroundColor=none;fillColor=#A8DADC;strokeColor=#457B9D;fontColor=#1D3557;" vertex="1" parent="1">
          <mxGeometry x="-1240" y="20" width="160" height="120" as="geometry" />
        </mxCell>
        <mxCell id="zYAFex58_-Hg5FmRaFq3-49" value="&lt;div&gt;&lt;strong style=&quot;background-color: transparent; color: light-dark(rgb(0, 0, 0), rgb(255, 255, 255));&quot; data-end=&quot;598&quot; data-start=&quot;582&quot;&gt;DeviceTypeID&lt;/strong&gt;&lt;span style=&quot;background-color: transparent; color: light-dark(rgb(0, 0, 0), rgb(255, 255, 255));&quot;&gt;&amp;nbsp;(PK)&lt;/span&gt;&lt;/div&gt;&lt;div&gt;&lt;span style=&quot;background-color: transparent; color: light-dark(rgb(0, 0, 0), rgb(255, 255, 255));&quot;&gt;TypeCode&lt;/span&gt;&lt;/div&gt;&lt;div&gt;Label_EN&lt;/div&gt;&lt;div&gt;Label_FA&lt;/div&gt;" style="align=left;strokeColor=none;fillColor=none;spacingLeft=4;spacingRight=4;fontSize=12;verticalAlign=top;resizable=0;rotatable=0;part=1;html=1;whiteSpace=wrap;labelBackgroundColor=none;fontColor=#1D3557;" vertex="1" parent="zYAFex58_-Hg5FmRaFq3-48">
          <mxGeometry y="50" width="160" height="70" as="geometry" />
        </mxCell>
        <mxCell id="zYAFex58_-Hg5FmRaFq3-51" value="LkpDeviceStatus" style="swimlane;childLayout=stackLayout;horizontal=1;startSize=50;horizontalStack=0;rounded=1;fontSize=14;fontStyle=0;strokeWidth=2;resizeParent=0;resizeLast=1;shadow=0;dashed=0;align=center;arcSize=4;whiteSpace=wrap;html=1;labelBackgroundColor=none;fillColor=#A8DADC;strokeColor=#457B9D;fontColor=#1D3557;" vertex="1" parent="1">
          <mxGeometry x="-1020" y="20" width="160" height="120" as="geometry" />
        </mxCell>
        <mxCell id="zYAFex58_-Hg5FmRaFq3-52" value="&lt;div&gt;&lt;strong data-end=&quot;680&quot; data-start=&quot;662&quot;&gt;DeviceStatusID&lt;/strong&gt; (PK)&lt;/div&gt;&lt;div&gt;&lt;span style=&quot;background-color: transparent; color: light-dark(rgb(0, 0, 0), rgb(255, 255, 255));&quot;&gt;StatusCode&lt;/span&gt;&lt;/div&gt;&lt;div&gt;Label_EN&lt;/div&gt;&lt;div&gt;Label_FA&lt;/div&gt;" style="align=left;strokeColor=none;fillColor=none;spacingLeft=4;spacingRight=4;fontSize=12;verticalAlign=top;resizable=0;rotatable=0;part=1;html=1;whiteSpace=wrap;labelBackgroundColor=none;fontColor=#1D3557;" vertex="1" parent="zYAFex58_-Hg5FmRaFq3-51">
          <mxGeometry y="50" width="160" height="70" as="geometry" />
        </mxCell>
        <mxCell id="zYAFex58_-Hg5FmRaFq3-53" value="LkpCardType" style="swimlane;childLayout=stackLayout;horizontal=1;startSize=50;horizontalStack=0;rounded=1;fontSize=14;fontStyle=0;strokeWidth=2;resizeParent=0;resizeLast=1;shadow=0;dashed=0;align=center;arcSize=4;whiteSpace=wrap;html=1;labelBackgroundColor=none;fillColor=#A8DADC;strokeColor=#457B9D;fontColor=#1D3557;" vertex="1" parent="1">
          <mxGeometry x="-650" y="20" width="160" height="120" as="geometry" />
        </mxCell>
        <mxCell id="zYAFex58_-Hg5FmRaFq3-54" value="&lt;div&gt;&lt;span style=&quot;background-color: transparent; color: light-dark(rgb(0, 0, 0), rgb(255, 255, 255));&quot;&gt;&lt;b&gt;CardTypeID&lt;/b&gt;&lt;/span&gt;&lt;span style=&quot;background-color: transparent; color: light-dark(rgb(0, 0, 0), rgb(255, 255, 255));&quot;&gt;&amp;nbsp;(PK)&lt;/span&gt;&lt;/div&gt;&lt;div&gt;&lt;span style=&quot;background-color: transparent; color: light-dark(rgb(0, 0, 0), rgb(255, 255, 255));&quot;&gt;TypeCode&lt;/span&gt;&lt;/div&gt;&lt;div&gt;Label_EN&lt;/div&gt;&lt;div&gt;Label_FA&lt;/div&gt;" style="align=left;strokeColor=none;fillColor=none;spacingLeft=4;spacingRight=4;fontSize=12;verticalAlign=top;resizable=0;rotatable=0;part=1;html=1;whiteSpace=wrap;labelBackgroundColor=none;fontColor=#1D3557;" vertex="1" parent="zYAFex58_-Hg5FmRaFq3-53">
          <mxGeometry y="50" width="160" height="70" as="geometry" />
        </mxCell>
        <mxCell id="zYAFex58_-Hg5FmRaFq3-63" value="LkpPaymentMethod" style="swimlane;childLayout=stackLayout;horizontal=1;startSize=50;horizontalStack=0;rounded=1;fontSize=14;fontStyle=0;strokeWidth=2;resizeParent=0;resizeLast=1;shadow=0;dashed=0;align=center;arcSize=4;whiteSpace=wrap;html=1;labelBackgroundColor=none;fillColor=#A8DADC;strokeColor=#457B9D;fontColor=#1D3557;" vertex="1" parent="1">
          <mxGeometry x="-840" y="20" width="160" height="120" as="geometry" />
        </mxCell>
        <mxCell id="zYAFex58_-Hg5FmRaFq3-64" value="&lt;div&gt;&lt;strong style=&quot;background-color: transparent; color: light-dark(rgb(0, 0, 0), rgb(255, 255, 255));&quot; data-end=&quot;920&quot; data-start=&quot;901&quot;&gt;PaymentMethodID&lt;/strong&gt;&lt;span style=&quot;background-color: transparent; color: light-dark(rgb(0, 0, 0), rgb(255, 255, 255));&quot;&gt; (PK)&lt;/span&gt;&lt;/div&gt;&lt;div&gt;MethodCode&lt;/div&gt;&lt;div&gt;Label_EN&lt;/div&gt;&lt;div&gt;Label_FA&lt;/div&gt;" style="align=left;strokeColor=none;fillColor=none;spacingLeft=4;spacingRight=4;fontSize=12;verticalAlign=top;resizable=0;rotatable=0;part=1;html=1;whiteSpace=wrap;labelBackgroundColor=none;fontColor=#1D3557;" vertex="1" parent="zYAFex58_-Hg5FmRaFq3-63">
          <mxGeometry y="50" width="160" height="70" as="geometry" />
        </mxCell>
        <mxCell id="zYAFex58_-Hg5FmRaFq3-68" value="LkpSalesChannel" style="swimlane;childLayout=stackLayout;horizontal=1;startSize=50;horizontalStack=0;rounded=1;fontSize=14;fontStyle=0;strokeWidth=2;resizeParent=0;resizeLast=1;shadow=0;dashed=0;align=center;arcSize=4;whiteSpace=wrap;html=1;labelBackgroundColor=none;fillColor=#A8DADC;strokeColor=#457B9D;fontColor=#1D3557;" vertex="1" parent="1">
          <mxGeometry x="-240" y="20" width="160" height="120" as="geometry" />
        </mxCell>
        <mxCell id="zYAFex58_-Hg5FmRaFq3-69" value="&lt;div&gt;&lt;strong style=&quot;background-color: transparent; color: light-dark(rgb(0, 0, 0), rgb(255, 255, 255));&quot; data-end=&quot;1004&quot; data-start=&quot;986&quot;&gt;SalesChannelID&lt;/strong&gt;&lt;span style=&quot;background-color: transparent; color: light-dark(rgb(0, 0, 0), rgb(255, 255, 255));&quot;&gt;&amp;nbsp;(PK)&lt;/span&gt;&lt;/div&gt;&lt;div&gt;ChannelCode&lt;/div&gt;&lt;div&gt;Label_EN&lt;/div&gt;&lt;div&gt;Label_FA&lt;/div&gt;" style="align=left;strokeColor=none;fillColor=none;spacingLeft=4;spacingRight=4;fontSize=12;verticalAlign=top;resizable=0;rotatable=0;part=1;html=1;whiteSpace=wrap;labelBackgroundColor=none;fontColor=#1D3557;" vertex="1" parent="zYAFex58_-Hg5FmRaFq3-68">
          <mxGeometry y="50" width="160" height="70" as="geometry" />
        </mxCell>
        <mxCell id="zYAFex58_-Hg5FmRaFq3-70" value="LkpMaintenanceType" style="swimlane;childLayout=stackLayout;horizontal=1;startSize=50;horizontalStack=0;rounded=1;fontSize=14;fontStyle=0;strokeWidth=2;resizeParent=0;resizeLast=1;shadow=0;dashed=0;align=center;arcSize=4;whiteSpace=wrap;html=1;labelBackgroundColor=none;fillColor=#A8DADC;strokeColor=#457B9D;fontColor=#1D3557;" vertex="1" parent="1">
          <mxGeometry x="85" y="10" width="160" height="120" as="geometry" />
        </mxCell>
        <mxCell id="zYAFex58_-Hg5FmRaFq3-71" value="&lt;div&gt;&lt;strong style=&quot;background-color: transparent; color: light-dark(rgb(0, 0, 0), rgb(255, 255, 255));&quot; data-end=&quot;1004&quot; data-start=&quot;986&quot;&gt;MaintenanceTypeID&lt;/strong&gt;&lt;span style=&quot;background-color: transparent; color: light-dark(rgb(0, 0, 0), rgb(255, 255, 255));&quot;&gt;&amp;nbsp;(PK)&lt;/span&gt;&lt;/div&gt;&lt;div&gt;TypeCode&lt;/div&gt;&lt;div&gt;Label_EN&lt;/div&gt;&lt;div&gt;Label_FA&lt;/div&gt;" style="align=left;strokeColor=none;fillColor=none;spacingLeft=4;spacingRight=4;fontSize=12;verticalAlign=top;resizable=0;rotatable=0;part=1;html=1;whiteSpace=wrap;labelBackgroundColor=none;fontColor=#1D3557;" vertex="1" parent="zYAFex58_-Hg5FmRaFq3-70">
          <mxGeometry y="50" width="160" height="70" as="geometry" />
        </mxCell>
        <mxCell id="zYAFex58_-Hg5FmRaFq3-72" value="LkpPartCategory" style="swimlane;childLayout=stackLayout;horizontal=1;startSize=50;horizontalStack=0;rounded=1;fontSize=14;fontStyle=0;strokeWidth=2;resizeParent=0;resizeLast=1;shadow=0;dashed=0;align=center;arcSize=4;whiteSpace=wrap;html=1;labelBackgroundColor=none;fillColor=#A8DADC;strokeColor=#457B9D;fontColor=#1D3557;" vertex="1" parent="1">
          <mxGeometry x="345" y="10" width="160" height="140" as="geometry" />
        </mxCell>
        <mxCell id="zYAFex58_-Hg5FmRaFq3-73" value="&lt;div&gt;&lt;strong style=&quot;background-color: transparent; color: light-dark(rgb(0, 0, 0), rgb(255, 255, 255));&quot; data-end=&quot;1004&quot; data-start=&quot;986&quot;&gt;PartCategoryID&lt;/strong&gt;&lt;span style=&quot;background-color: transparent; color: light-dark(rgb(0, 0, 0), rgb(255, 255, 255));&quot;&gt;&amp;nbsp;(PK)&lt;/span&gt;&lt;/div&gt;&lt;div&gt;ParentCategoryID (FK)&lt;/div&gt;&lt;div&gt;CategoryCode&lt;/div&gt;&lt;div&gt;Label_EN&lt;/div&gt;&lt;div&gt;Label_FA&lt;/div&gt;" style="align=left;strokeColor=none;fillColor=none;spacingLeft=4;spacingRight=4;fontSize=12;verticalAlign=top;resizable=0;rotatable=0;part=1;html=1;whiteSpace=wrap;labelBackgroundColor=none;fontColor=#1D3557;" vertex="1" parent="zYAFex58_-Hg5FmRaFq3-72">
          <mxGeometry y="50" width="160" height="90" as="geometry" />
        </mxCell>
        <mxCell id="zYAFex58_-Hg5FmRaFq3-74" value="LkpRole" style="swimlane;childLayout=stackLayout;horizontal=1;startSize=50;horizontalStack=0;rounded=1;fontSize=14;fontStyle=0;strokeWidth=2;resizeParent=0;resizeLast=1;shadow=0;dashed=0;align=center;arcSize=4;whiteSpace=wrap;html=1;labelBackgroundColor=none;fillColor=#A8DADC;strokeColor=#457B9D;fontColor=#1D3557;" vertex="1" parent="1">
          <mxGeometry x="730" y="10" width="160" height="120" as="geometry" />
        </mxCell>
        <mxCell id="zYAFex58_-Hg5FmRaFq3-75" value="&lt;div&gt;&lt;strong data-end=&quot;1278&quot; data-start=&quot;1268&quot;&gt;RoleID&lt;/strong&gt; (PK)&lt;/div&gt;&lt;div&gt;RoleCode&lt;/div&gt;&lt;div&gt;Label_EN&lt;/div&gt;&lt;div&gt;Label_FA&lt;/div&gt;" style="align=left;strokeColor=none;fillColor=none;spacingLeft=4;spacingRight=4;fontSize=12;verticalAlign=top;resizable=0;rotatable=0;part=1;html=1;whiteSpace=wrap;labelBackgroundColor=none;fontColor=#1D3557;" vertex="1" parent="zYAFex58_-Hg5FmRaFq3-74">
          <mxGeometry y="50" width="160" height="70" as="geometry" />
        </mxCell>
        <mxCell id="zYAFex58_-Hg5FmRaFq3-77" value="LkpDepartment" style="swimlane;childLayout=stackLayout;horizontal=1;startSize=50;horizontalStack=0;rounded=1;fontSize=14;fontStyle=0;strokeWidth=2;resizeParent=0;resizeLast=1;shadow=0;dashed=0;align=center;arcSize=4;whiteSpace=wrap;html=1;labelBackgroundColor=none;fillColor=#A8DADC;strokeColor=#457B9D;fontColor=#1D3557;" vertex="1" parent="1">
          <mxGeometry x="930" y="10" width="160" height="120" as="geometry" />
        </mxCell>
        <mxCell id="zYAFex58_-Hg5FmRaFq3-78" value="&lt;div&gt;&lt;strong data-end=&quot;1278&quot; data-start=&quot;1268&quot;&gt;DepartmentID&lt;/strong&gt; (PK)&lt;/div&gt;&lt;div&gt;DeptCode&lt;/div&gt;&lt;div&gt;Label_EN&lt;/div&gt;&lt;div&gt;Label_FA&lt;/div&gt;" style="align=left;strokeColor=none;fillColor=none;spacingLeft=4;spacingRight=4;fontSize=12;verticalAlign=top;resizable=0;rotatable=0;part=1;html=1;whiteSpace=wrap;labelBackgroundColor=none;fontColor=#1D3557;" vertex="1" parent="zYAFex58_-Hg5FmRaFq3-77">
          <mxGeometry y="50" width="160" height="70" as="geometry" />
        </mxCell>
        <mxCell id="zYAFex58_-Hg5FmRaFq3-79" value="LkpShiftType" style="swimlane;childLayout=stackLayout;horizontal=1;startSize=50;horizontalStack=0;rounded=1;fontSize=14;fontStyle=0;strokeWidth=2;resizeParent=0;resizeLast=1;shadow=0;dashed=0;align=center;arcSize=4;whiteSpace=wrap;html=1;labelBackgroundColor=none;fillColor=#A8DADC;strokeColor=#457B9D;fontColor=#1D3557;" vertex="1" parent="1">
          <mxGeometry x="1140" width="160" height="120" as="geometry" />
        </mxCell>
        <mxCell id="zYAFex58_-Hg5FmRaFq3-80" value="&lt;div&gt;&lt;strong style=&quot;background-color: transparent; color: light-dark(rgb(0, 0, 0), rgb(255, 255, 255));&quot; data-end=&quot;1432&quot; data-start=&quot;1417&quot;&gt;ShiftTypeID&lt;/strong&gt;&lt;span style=&quot;background-color: transparent; color: light-dark(rgb(0, 0, 0), rgb(255, 255, 255));&quot;&gt; (PK)&lt;/span&gt;&lt;/div&gt;&lt;div&gt;ShiftCode&lt;/div&gt;&lt;div&gt;Label_EN&lt;/div&gt;&lt;div&gt;Label_FA&lt;/div&gt;" style="align=left;strokeColor=none;fillColor=none;spacingLeft=4;spacingRight=4;fontSize=12;verticalAlign=top;resizable=0;rotatable=0;part=1;html=1;whiteSpace=wrap;labelBackgroundColor=none;fontColor=#1D3557;" vertex="1" parent="zYAFex58_-Hg5FmRaFq3-79">
          <mxGeometry y="50" width="160" height="70" as="geometry" />
        </mxCell>
        <mxCell id="zYAFex58_-Hg5FmRaFq3-81" value="LkpFuelType" style="swimlane;childLayout=stackLayout;horizontal=1;startSize=50;horizontalStack=0;rounded=1;fontSize=14;fontStyle=0;strokeWidth=2;resizeParent=0;resizeLast=1;shadow=0;dashed=0;align=center;arcSize=4;whiteSpace=wrap;html=1;labelBackgroundColor=none;fillColor=#A8DADC;strokeColor=#457B9D;fontColor=#1D3557;" vertex="1" parent="1">
          <mxGeometry x="1350" width="160" height="120" as="geometry" />
        </mxCell>
        <mxCell id="zYAFex58_-Hg5FmRaFq3-82" value="&lt;div&gt;&lt;span style=&quot;background-color: transparent; color: light-dark(rgb(0, 0, 0), rgb(255, 255, 255));&quot;&gt;FuelTypeID&lt;/span&gt;&lt;span style=&quot;background-color: transparent; color: light-dark(rgb(0, 0, 0), rgb(255, 255, 255));&quot;&gt;(PK)&lt;/span&gt;&lt;/div&gt;&lt;div&gt;FuelCode&lt;/div&gt;&lt;div&gt;Label_EN&lt;/div&gt;&lt;div&gt;Label_FA&lt;/div&gt;" style="align=left;strokeColor=none;fillColor=none;spacingLeft=4;spacingRight=4;fontSize=12;verticalAlign=top;resizable=0;rotatable=0;part=1;html=1;whiteSpace=wrap;labelBackgroundColor=none;fontColor=#1D3557;" vertex="1" parent="zYAFex58_-Hg5FmRaFq3-81">
          <mxGeometry y="50" width="160" height="70" as="geometry" />
        </mxCell>
        <mxCell id="zYAFex58_-Hg5FmRaFq3-83" value="Station" style="swimlane;childLayout=stackLayout;horizontal=1;startSize=50;horizontalStack=0;rounded=1;fontSize=14;fontStyle=0;strokeWidth=2;resizeParent=0;resizeLast=1;shadow=0;dashed=0;align=center;arcSize=4;whiteSpace=wrap;html=1;labelBackgroundColor=none;fillColor=#A8DADC;strokeColor=#457B9D;fontColor=#1D3557;" vertex="1" parent="1">
          <mxGeometry x="-1680" y="830" width="160" height="190" as="geometry" />
        </mxCell>
        <mxCell id="zYAFex58_-Hg5FmRaFq3-84" value="&lt;strong data-end=&quot;1607&quot; data-start=&quot;1594&quot;&gt;StationID&lt;/strong&gt; (PK)&lt;div&gt;StationName&lt;/div&gt;&lt;div&gt;Latitude&lt;/div&gt;&lt;div&gt;Longitude&lt;/div&gt;&lt;div&gt;StreetAddress&lt;/div&gt;&lt;div&gt;City&lt;/div&gt;&lt;div&gt;ZoneCode&lt;/div&gt;&lt;div&gt;OpeningDate&lt;/div&gt;&lt;div&gt;IsAccessible&lt;/div&gt;" style="align=left;strokeColor=none;fillColor=none;spacingLeft=4;spacingRight=4;fontSize=12;verticalAlign=top;resizable=0;rotatable=0;part=1;html=1;whiteSpace=wrap;labelBackgroundColor=none;fontColor=#1D3557;" vertex="1" parent="zYAFex58_-Hg5FmRaFq3-83">
          <mxGeometry y="50" width="160" height="140" as="geometry" />
        </mxCell>
        <mxCell id="zYAFex58_-Hg5FmRaFq3-85" value="Route" style="swimlane;childLayout=stackLayout;horizontal=1;startSize=50;horizontalStack=0;rounded=1;fontSize=14;fontStyle=0;strokeWidth=2;resizeParent=0;resizeLast=1;shadow=0;dashed=0;align=center;arcSize=4;whiteSpace=wrap;html=1;labelBackgroundColor=none;fillColor=#A8DADC;strokeColor=#457B9D;fontColor=#1D3557;" vertex="1" parent="1">
          <mxGeometry x="-1660" y="330" width="160" height="150" as="geometry" />
        </mxCell>
        <mxCell id="zYAFex58_-Hg5FmRaFq3-86" value="&lt;strong data-end=&quot;1734&quot; data-start=&quot;1723&quot;&gt;RouteID&lt;/strong&gt; (PK)&lt;div&gt;RouteCode (Unique) RouteName&lt;/div&gt;&lt;div&gt;PeakFrequency OffPeakFreq&lt;/div&gt;&lt;div&gt;RouteStatusID (FK)&lt;/div&gt;" style="align=left;strokeColor=none;fillColor=none;spacingLeft=4;spacingRight=4;fontSize=12;verticalAlign=top;resizable=0;rotatable=0;part=1;html=1;whiteSpace=wrap;labelBackgroundColor=none;fontColor=#1D3557;" vertex="1" parent="zYAFex58_-Hg5FmRaFq3-85">
          <mxGeometry y="50" width="160" height="100" as="geometry" />
        </mxCell>
        <mxCell id="zYAFex58_-Hg5FmRaFq3-87" value="RouteStation" style="swimlane;childLayout=stackLayout;horizontal=1;startSize=50;horizontalStack=0;rounded=1;fontSize=14;fontStyle=0;strokeWidth=2;resizeParent=0;resizeLast=1;shadow=0;dashed=0;align=center;arcSize=4;whiteSpace=wrap;html=1;labelBackgroundColor=none;fillColor=#A8DADC;strokeColor=#457B9D;fontColor=#1D3557;" vertex="1" parent="1">
          <mxGeometry x="-1670" y="620" width="160" height="90" as="geometry" />
        </mxCell>
        <mxCell id="zYAFex58_-Hg5FmRaFq3-88" value="&lt;strong data-end=&quot;1863&quot; data-start=&quot;1844&quot;&gt;RouteID + SeqNo&lt;/strong&gt; (PK)&lt;div&gt;StationID (FK)&lt;/div&gt;" style="align=left;strokeColor=none;fillColor=none;spacingLeft=4;spacingRight=4;fontSize=12;verticalAlign=top;resizable=0;rotatable=0;part=1;html=1;whiteSpace=wrap;labelBackgroundColor=none;fontColor=#1D3557;" vertex="1" parent="zYAFex58_-Hg5FmRaFq3-87">
          <mxGeometry y="50" width="160" height="40" as="geometry" />
        </mxCell>
        <mxCell id="zYAFex58_-Hg5FmRaFq3-89" value="Vehicle" style="swimlane;childLayout=stackLayout;horizontal=1;startSize=50;horizontalStack=0;rounded=1;fontSize=14;fontStyle=0;strokeWidth=2;resizeParent=0;resizeLast=1;shadow=0;dashed=0;align=center;arcSize=4;whiteSpace=wrap;html=1;labelBackgroundColor=none;fillColor=#A8DADC;strokeColor=#457B9D;fontColor=#1D3557;" vertex="1" parent="1">
          <mxGeometry x="-2080" y="345" width="160" height="220" as="geometry" />
        </mxCell>
        <mxCell id="zYAFex58_-Hg5FmRaFq3-90" value="&lt;strong data-end=&quot;1916&quot; data-start=&quot;1903&quot;&gt;VehicleID&lt;/strong&gt; (PK)&lt;div&gt;VehicleTypeID (FK)&lt;/div&gt;&lt;div&gt;PlateNo (Unique)&amp;nbsp;&lt;/div&gt;&lt;div&gt;Capacity&lt;/div&gt;&lt;div&gt;YearCreated&lt;/div&gt;&lt;div&gt;Manufacturer&lt;/div&gt;&lt;div&gt;Model&lt;/div&gt;&lt;div&gt;PurchaseDate EngineNumber GPSUnitSerial&lt;/div&gt;&lt;div&gt;LastOdometerKM&lt;/div&gt;" style="align=left;strokeColor=none;fillColor=none;spacingLeft=4;spacingRight=4;fontSize=12;verticalAlign=top;resizable=0;rotatable=0;part=1;html=1;whiteSpace=wrap;labelBackgroundColor=none;fontColor=#1D3557;" vertex="1" parent="zYAFex58_-Hg5FmRaFq3-89">
          <mxGeometry y="50" width="160" height="170" as="geometry" />
        </mxCell>
        <mxCell id="zYAFex58_-Hg5FmRaFq3-91" value="VehicleStatusHistory" style="swimlane;childLayout=stackLayout;horizontal=1;startSize=50;horizontalStack=0;rounded=1;fontSize=14;fontStyle=0;strokeWidth=2;resizeParent=0;resizeLast=1;shadow=0;dashed=0;align=center;arcSize=4;whiteSpace=wrap;html=1;labelBackgroundColor=none;fillColor=#A8DADC;strokeColor=#457B9D;fontColor=#1D3557;" vertex="1" parent="1">
          <mxGeometry x="-1840" y="340" width="160" height="140" as="geometry" />
        </mxCell>
        <mxCell id="zYAFex58_-Hg5FmRaFq3-92" value="&lt;strong data-end=&quot;2114&quot; data-start=&quot;2098&quot;&gt;StatusHistID&lt;/strong&gt; (PK)&lt;div&gt;VehicleID (FK) VehicleStatusID (FK)&lt;/div&gt;&lt;div&gt;StatusStartDT&lt;/div&gt;&lt;div&gt;StatusEndDT&lt;/div&gt;" style="align=left;strokeColor=none;fillColor=none;spacingLeft=4;spacingRight=4;fontSize=12;verticalAlign=top;resizable=0;rotatable=0;part=1;html=1;whiteSpace=wrap;labelBackgroundColor=none;fontColor=#1D3557;" vertex="1" parent="zYAFex58_-Hg5FmRaFq3-91">
          <mxGeometry y="50" width="160" height="90" as="geometry" />
        </mxCell>
        <mxCell id="zYAFex58_-Hg5FmRaFq3-93" value="Journey" style="swimlane;childLayout=stackLayout;horizontal=1;startSize=50;horizontalStack=0;rounded=1;fontSize=14;fontStyle=0;strokeWidth=2;resizeParent=0;resizeLast=1;shadow=0;dashed=0;align=center;arcSize=4;whiteSpace=wrap;html=1;labelBackgroundColor=none;fillColor=#A8DADC;strokeColor=#457B9D;fontColor=#1D3557;" vertex="1" parent="1">
          <mxGeometry x="-2090" y="700" width="160" height="220" as="geometry" />
        </mxCell>
        <mxCell id="zYAFex58_-Hg5FmRaFq3-94" value="&lt;strong data-end=&quot;2218&quot; data-start=&quot;2205&quot;&gt;JourneyID&lt;/strong&gt; (PK)&lt;div&gt;VehicleID (FK)&lt;/div&gt;&lt;div&gt;RouteID (FK)&lt;/div&gt;&lt;div&gt;DriverEmpID (FK)&lt;/div&gt;&lt;div&gt;PlannedStartDT ActualStartDT&lt;/div&gt;&lt;div&gt;PlannedEndDT ActualEndDT&lt;/div&gt;&lt;div&gt;DistanceKM PassengerCount&lt;/div&gt;" style="align=left;strokeColor=none;fillColor=none;spacingLeft=4;spacingRight=4;fontSize=12;verticalAlign=top;resizable=0;rotatable=0;part=1;html=1;whiteSpace=wrap;labelBackgroundColor=none;fontColor=#1D3557;" vertex="1" parent="zYAFex58_-Hg5FmRaFq3-93">
          <mxGeometry y="50" width="160" height="170" as="geometry" />
        </mxCell>
        <mxCell id="zYAFex58_-Hg5FmRaFq3-95" value="JourneyStatusEvent" style="swimlane;childLayout=stackLayout;horizontal=1;startSize=50;horizontalStack=0;rounded=1;fontSize=14;fontStyle=0;strokeWidth=2;resizeParent=0;resizeLast=1;shadow=0;dashed=0;align=center;arcSize=4;whiteSpace=wrap;html=1;labelBackgroundColor=none;fillColor=#A8DADC;strokeColor=#457B9D;fontColor=#1D3557;" vertex="1" parent="1">
          <mxGeometry x="-1480" y="330" width="190" height="100" as="geometry" />
        </mxCell>
        <mxCell id="zYAFex58_-Hg5FmRaFq3-96" value="&lt;strong data-end=&quot;2430&quot; data-start=&quot;2406&quot;&gt;JourneyID + StatusDT&lt;/strong&gt; (PK)&lt;div&gt;JourneyStatusID (FK)&lt;/div&gt;" style="align=left;strokeColor=none;fillColor=none;spacingLeft=4;spacingRight=4;fontSize=12;verticalAlign=top;resizable=0;rotatable=0;part=1;html=1;whiteSpace=wrap;labelBackgroundColor=none;fontColor=#1D3557;" vertex="1" parent="zYAFex58_-Hg5FmRaFq3-95">
          <mxGeometry y="50" width="190" height="50" as="geometry" />
        </mxCell>
        <mxCell id="zYAFex58_-Hg5FmRaFq3-97" value="ArrivalEvent" style="swimlane;childLayout=stackLayout;horizontal=1;startSize=50;horizontalStack=0;rounded=1;fontSize=14;fontStyle=0;strokeWidth=2;resizeParent=0;resizeLast=1;shadow=0;dashed=0;align=center;arcSize=4;whiteSpace=wrap;html=1;labelBackgroundColor=none;fillColor=#A8DADC;strokeColor=#457B9D;fontColor=#1D3557;" vertex="1" parent="1">
          <mxGeometry x="-2460" y="710" width="165" height="170" as="geometry" />
        </mxCell>
        <mxCell id="zYAFex58_-Hg5FmRaFq3-98" value="&lt;strong data-end=&quot;2506&quot; data-start=&quot;2481&quot;&gt;JourneyID + StationID&lt;/strong&gt; (PK)&lt;div&gt;ActualArrivalDT ActualDepartureDT&lt;/div&gt;&lt;div&gt;BoardedCnt&lt;/div&gt;&lt;div&gt;AlightedCnt&lt;/div&gt;&lt;div&gt;CardBoarded&lt;/div&gt;&lt;div&gt;TicketBoarded&lt;/div&gt;" style="align=left;strokeColor=none;fillColor=none;spacingLeft=4;spacingRight=4;fontSize=12;verticalAlign=top;resizable=0;rotatable=0;part=1;html=1;whiteSpace=wrap;labelBackgroundColor=none;fontColor=#1D3557;" vertex="1" parent="zYAFex58_-Hg5FmRaFq3-97">
          <mxGeometry y="50" width="165" height="120" as="geometry" />
        </mxCell>
        <mxCell id="zYAFex58_-Hg5FmRaFq3-99" value="PaymentDevice" style="swimlane;childLayout=stackLayout;horizontal=1;startSize=50;horizontalStack=0;rounded=1;fontSize=14;fontStyle=0;strokeWidth=2;resizeParent=0;resizeLast=1;shadow=0;dashed=0;align=center;arcSize=4;whiteSpace=wrap;html=1;labelBackgroundColor=none;fillColor=#A8DADC;strokeColor=#457B9D;fontColor=#1D3557;" vertex="1" parent="1">
          <mxGeometry x="-1242.5" y="310" width="165" height="190" as="geometry" />
        </mxCell>
        <mxCell id="zYAFex58_-Hg5FmRaFq3-100" value="&lt;strong data-end=&quot;2639&quot; data-start=&quot;2627&quot;&gt;DeviceID&lt;/strong&gt; (PK)&lt;div&gt;DeviceCode (Unique) DeviceTypeID (FK)&lt;/div&gt;&lt;div&gt;DeviceStatusID (FK)&lt;/div&gt;&lt;div&gt;InstallDate&lt;/div&gt;&lt;div&gt;SerialNo&lt;/div&gt;&lt;div&gt;FirmwareVersion LastServiceDT&lt;/div&gt;&lt;div&gt;IPAddress&lt;/div&gt;" style="align=left;strokeColor=none;fillColor=none;spacingLeft=4;spacingRight=4;fontSize=12;verticalAlign=top;resizable=0;rotatable=0;part=1;html=1;whiteSpace=wrap;labelBackgroundColor=none;fontColor=#1D3557;" vertex="1" parent="zYAFex58_-Hg5FmRaFq3-99">
          <mxGeometry y="50" width="165" height="140" as="geometry" />
        </mxCell>
        <mxCell id="zYAFex58_-Hg5FmRaFq3-101" value="DeviceAssignment" style="swimlane;childLayout=stackLayout;horizontal=1;startSize=50;horizontalStack=0;rounded=1;fontSize=14;fontStyle=0;strokeWidth=2;resizeParent=0;resizeLast=1;shadow=0;dashed=0;align=center;arcSize=4;whiteSpace=wrap;html=1;labelBackgroundColor=none;fillColor=#A8DADC;strokeColor=#457B9D;fontColor=#1D3557;" vertex="1" parent="1">
          <mxGeometry x="-1340" y="1090" width="165" height="170" as="geometry" />
        </mxCell>
        <mxCell id="zYAFex58_-Hg5FmRaFq3-102" value="&lt;strong data-end=&quot;2819&quot; data-start=&quot;2803&quot;&gt;AssignmentID&lt;/strong&gt; (PK)&lt;div&gt;DeviceID (FK) AssignedToType&lt;/div&gt;&lt;div&gt;VehicleID (nullable FK) StationID (nullable FK)&lt;/div&gt;&lt;div&gt;AssignmentStart AssignmentEnd&lt;/div&gt;" style="align=left;strokeColor=none;fillColor=none;spacingLeft=4;spacingRight=4;fontSize=12;verticalAlign=top;resizable=0;rotatable=0;part=1;html=1;whiteSpace=wrap;labelBackgroundColor=none;fontColor=#1D3557;" vertex="1" parent="zYAFex58_-Hg5FmRaFq3-101">
          <mxGeometry y="50" width="165" height="120" as="geometry" />
        </mxCell>
        <mxCell id="zYAFex58_-Hg5FmRaFq3-103" value="PaymentTxn" style="swimlane;childLayout=stackLayout;horizontal=1;startSize=50;horizontalStack=0;rounded=1;fontSize=14;fontStyle=0;strokeWidth=2;resizeParent=0;resizeLast=1;shadow=0;dashed=0;align=center;arcSize=4;whiteSpace=wrap;html=1;labelBackgroundColor=none;fillColor=#A8DADC;strokeColor=#457B9D;fontColor=#1D3557;" vertex="1" parent="1">
          <mxGeometry x="-917.5" y="270" width="197.5" height="180" as="geometry" />
        </mxCell>
        <mxCell id="zYAFex58_-Hg5FmRaFq3-104" value="&lt;strong data-end=&quot;2970&quot; data-start=&quot;2961&quot;&gt;TxnID&lt;/strong&gt; (PK)&lt;div&gt;PaymentMethodID (FK)&lt;/div&gt;&lt;div&gt;CardID / TicketID (nullable FK)&lt;/div&gt;&lt;div&gt;StationID (FK)&lt;/div&gt;&lt;div&gt;RouteID (FK)&lt;/div&gt;&lt;div&gt;DeviceID (FK)&lt;/div&gt;&lt;div&gt;TxnDT&amp;nbsp;&lt;/div&gt;&lt;div&gt;FareAmount&lt;/div&gt;&lt;div&gt;&lt;br&gt;&lt;/div&gt;" style="align=left;strokeColor=none;fillColor=none;spacingLeft=4;spacingRight=4;fontSize=12;verticalAlign=top;resizable=0;rotatable=0;part=1;html=1;whiteSpace=wrap;labelBackgroundColor=none;fontColor=#1D3557;" vertex="1" parent="zYAFex58_-Hg5FmRaFq3-103">
          <mxGeometry y="50" width="197.5" height="130" as="geometry" />
        </mxCell>
        <mxCell id="zYAFex58_-Hg5FmRaFq3-105" value="Card" style="swimlane;childLayout=stackLayout;horizontal=1;startSize=50;horizontalStack=0;rounded=1;fontSize=14;fontStyle=0;strokeWidth=2;resizeParent=0;resizeLast=1;shadow=0;dashed=0;align=center;arcSize=4;whiteSpace=wrap;html=1;labelBackgroundColor=none;fillColor=#A8DADC;strokeColor=#457B9D;fontColor=#1D3557;" vertex="1" parent="1">
          <mxGeometry x="-610" y="315" width="175" height="180" as="geometry" />
        </mxCell>
        <mxCell id="zYAFex58_-Hg5FmRaFq3-106" value="&lt;div&gt;&lt;strong data-end=&quot;3155&quot; data-start=&quot;3145&quot;&gt;CardID&lt;/strong&gt; (PK)&lt;/div&gt;&lt;div&gt;CardTypeID (FK)&lt;/div&gt;&lt;div&gt;CardStatusID (FK)&lt;/div&gt;&lt;div&gt;IssueDate&lt;/div&gt;&lt;div&gt;ExpiryDate&lt;/div&gt;&lt;div&gt;CurrentBalance&amp;nbsp;&lt;/div&gt;&lt;div&gt;LastTopUpDT&lt;/div&gt;&lt;div&gt;IsActive&lt;/div&gt;" style="align=left;strokeColor=none;fillColor=none;spacingLeft=4;spacingRight=4;fontSize=12;verticalAlign=top;resizable=0;rotatable=0;part=1;html=1;whiteSpace=wrap;labelBackgroundColor=none;fontColor=#1D3557;" vertex="1" parent="zYAFex58_-Hg5FmRaFq3-105">
          <mxGeometry y="50" width="175" height="130" as="geometry" />
        </mxCell>
        <mxCell id="zYAFex58_-Hg5FmRaFq3-107" value="CardTopUpTxn" style="swimlane;childLayout=stackLayout;horizontal=1;startSize=50;horizontalStack=0;rounded=1;fontSize=14;fontStyle=0;strokeWidth=2;resizeParent=0;resizeLast=1;shadow=0;dashed=0;align=center;arcSize=4;whiteSpace=wrap;html=1;labelBackgroundColor=none;fillColor=#A8DADC;strokeColor=#457B9D;fontColor=#1D3557;" vertex="1" parent="1">
          <mxGeometry x="-400" y="270" width="175" height="150" as="geometry" />
        </mxCell>
        <mxCell id="zYAFex58_-Hg5FmRaFq3-108" value="&lt;strong data-end=&quot;3296&quot; data-start=&quot;3285&quot;&gt;TopUpID&lt;/strong&gt; (PK)&lt;div&gt;CardID (FK)&lt;/div&gt;&lt;div&gt;StationID (FK)&lt;/div&gt;&lt;div&gt;TopUpDT&amp;nbsp;&lt;/div&gt;&lt;div&gt;Amount&lt;/div&gt;&lt;div&gt;SalesChannelID (FK)&lt;/div&gt;" style="align=left;strokeColor=none;fillColor=none;spacingLeft=4;spacingRight=4;fontSize=12;verticalAlign=top;resizable=0;rotatable=0;part=1;html=1;whiteSpace=wrap;labelBackgroundColor=none;fontColor=#1D3557;" vertex="1" parent="zYAFex58_-Hg5FmRaFq3-107">
          <mxGeometry y="50" width="175" height="100" as="geometry" />
        </mxCell>
        <mxCell id="zYAFex58_-Hg5FmRaFq3-109" value="Ticket" style="swimlane;childLayout=stackLayout;horizontal=1;startSize=50;horizontalStack=0;rounded=1;fontSize=14;fontStyle=0;strokeWidth=2;resizeParent=0;resizeLast=1;shadow=0;dashed=0;align=center;arcSize=4;whiteSpace=wrap;html=1;labelBackgroundColor=none;fillColor=#A8DADC;strokeColor=#457B9D;fontColor=#1D3557;" vertex="1" parent="1">
          <mxGeometry x="-560" y="790" width="175" height="120" as="geometry" />
        </mxCell>
        <mxCell id="zYAFex58_-Hg5FmRaFq3-110" value="&lt;strong data-end=&quot;3400&quot; data-start=&quot;3388&quot;&gt;TicketID&lt;/strong&gt; (PK)&lt;div&gt;IssueDate&lt;/div&gt;&lt;div&gt;ExpiryDate&lt;/div&gt;&lt;div&gt;IsActive&lt;/div&gt;" style="align=left;strokeColor=none;fillColor=none;spacingLeft=4;spacingRight=4;fontSize=12;verticalAlign=top;resizable=0;rotatable=0;part=1;html=1;whiteSpace=wrap;labelBackgroundColor=none;fontColor=#1D3557;" vertex="1" parent="zYAFex58_-Hg5FmRaFq3-109">
          <mxGeometry y="50" width="175" height="70" as="geometry" />
        </mxCell>
        <mxCell id="zYAFex58_-Hg5FmRaFq3-111" value="TicketSaleTxn" style="swimlane;childLayout=stackLayout;horizontal=1;startSize=50;horizontalStack=0;rounded=1;fontSize=14;fontStyle=0;strokeWidth=2;resizeParent=0;resizeLast=1;shadow=0;dashed=0;align=center;arcSize=4;whiteSpace=wrap;html=1;labelBackgroundColor=none;fillColor=#A8DADC;strokeColor=#457B9D;fontColor=#1D3557;" vertex="1" parent="1">
          <mxGeometry x="-140" y="270" width="175" height="150" as="geometry" />
        </mxCell>
        <mxCell id="zYAFex58_-Hg5FmRaFq3-112" value="&lt;strong data-end=&quot;3474&quot; data-start=&quot;3464&quot;&gt;SaleID&lt;/strong&gt; (PK)&lt;div&gt;TicketID (FK)&lt;/div&gt;&lt;div&gt;SaleDT&lt;/div&gt;&lt;div&gt;Amount&lt;/div&gt;&lt;div&gt;StationID (FK)&lt;/div&gt;&lt;div&gt;SalesChannelID (FK)&lt;/div&gt;" style="align=left;strokeColor=none;fillColor=none;spacingLeft=4;spacingRight=4;fontSize=12;verticalAlign=top;resizable=0;rotatable=0;part=1;html=1;whiteSpace=wrap;labelBackgroundColor=none;fontColor=#1D3557;" vertex="1" parent="zYAFex58_-Hg5FmRaFq3-111">
          <mxGeometry y="50" width="175" height="100" as="geometry" />
        </mxCell>
        <mxCell id="zYAFex58_-Hg5FmRaFq3-113" value="Part" style="swimlane;childLayout=stackLayout;horizontal=1;startSize=50;horizontalStack=0;rounded=1;fontSize=14;fontStyle=0;strokeWidth=2;resizeParent=0;resizeLast=1;shadow=0;dashed=0;align=center;arcSize=4;whiteSpace=wrap;html=1;labelBackgroundColor=none;fillColor=#A8DADC;strokeColor=#457B9D;fontColor=#1D3557;" vertex="1" parent="1">
          <mxGeometry x="338" y="300" width="175" height="120" as="geometry" />
        </mxCell>
        <mxCell id="zYAFex58_-Hg5FmRaFq3-114" value="&lt;strong data-end=&quot;3609&quot; data-start=&quot;3599&quot;&gt;PartID&lt;/strong&gt; (PK)&lt;div&gt;PartCategoryID (FK)&lt;/div&gt;&lt;div&gt;PartName&lt;/div&gt;&lt;div&gt;UnitCostLatest&lt;/div&gt;" style="align=left;strokeColor=none;fillColor=none;spacingLeft=4;spacingRight=4;fontSize=12;verticalAlign=top;resizable=0;rotatable=0;part=1;html=1;whiteSpace=wrap;labelBackgroundColor=none;fontColor=#1D3557;" vertex="1" parent="zYAFex58_-Hg5FmRaFq3-113">
          <mxGeometry y="50" width="175" height="70" as="geometry" />
        </mxCell>
        <mxCell id="zYAFex58_-Hg5FmRaFq3-116" value="Supplier" style="swimlane;childLayout=stackLayout;horizontal=1;startSize=50;horizontalStack=0;rounded=1;fontSize=14;fontStyle=0;strokeWidth=2;resizeParent=0;resizeLast=1;shadow=0;dashed=0;align=center;arcSize=4;whiteSpace=wrap;html=1;labelBackgroundColor=none;fillColor=#A8DADC;strokeColor=#457B9D;fontColor=#1D3557;" vertex="1" parent="1">
          <mxGeometry x="485.5" y="1140" width="175" height="210" as="geometry" />
        </mxCell>
        <mxCell id="zYAFex58_-Hg5FmRaFq3-117" value="&lt;strong data-end=&quot;3696&quot; data-start=&quot;3682&quot;&gt;SupplierID&lt;/strong&gt; (PK)&lt;div&gt;SupplierName&lt;/div&gt;&lt;div&gt;ContactPhone&lt;/div&gt;&lt;div&gt;ContactEmail&lt;/div&gt;&lt;div&gt;Address fields&lt;/div&gt;&lt;div&gt;Country&lt;/div&gt;&lt;div&gt;Website&lt;/div&gt;&lt;div&gt;TaxID&lt;/div&gt;&lt;div&gt;ContactPerson&lt;/div&gt;&lt;div&gt;CreatedDate&lt;/div&gt;" style="align=left;strokeColor=none;fillColor=none;spacingLeft=4;spacingRight=4;fontSize=12;verticalAlign=top;resizable=0;rotatable=0;part=1;html=1;whiteSpace=wrap;labelBackgroundColor=none;fontColor=#1D3557;" vertex="1" parent="zYAFex58_-Hg5FmRaFq3-116">
          <mxGeometry y="50" width="175" height="160" as="geometry" />
        </mxCell>
        <mxCell id="zYAFex58_-Hg5FmRaFq3-118" value="MaintenanceWorkOrder" style="swimlane;childLayout=stackLayout;horizontal=1;startSize=50;horizontalStack=0;rounded=1;fontSize=14;fontStyle=0;strokeWidth=2;resizeParent=0;resizeLast=1;shadow=0;dashed=0;align=center;arcSize=4;whiteSpace=wrap;html=1;labelBackgroundColor=none;fillColor=#A8DADC;strokeColor=#457B9D;fontColor=#1D3557;" vertex="1" parent="1">
          <mxGeometry x="110" y="260" width="175" height="220" as="geometry" />
        </mxCell>
        <mxCell id="zYAFex58_-Hg5FmRaFq3-119" value="&lt;strong data-end=&quot;3861&quot; data-start=&quot;3846&quot;&gt;WorkOrderID&lt;/strong&gt; (PK)&lt;div&gt;VehicleID (FK) MaintenanceTypeID (FK)&lt;/div&gt;&lt;div&gt;MechanicEmpID (FK)&lt;/div&gt;&lt;div&gt;OpenDT&lt;/div&gt;&lt;div&gt;CloseDT&lt;/div&gt;&lt;div&gt;OdometerAtService&lt;/div&gt;&lt;div&gt;RootCause&lt;/div&gt;&lt;div&gt;LaborHours&lt;/div&gt;&lt;div&gt;TotalCost&lt;/div&gt;&lt;div&gt;WarrantyClaim&lt;/div&gt;" style="align=left;strokeColor=none;fillColor=none;spacingLeft=4;spacingRight=4;fontSize=12;verticalAlign=top;resizable=0;rotatable=0;part=1;html=1;whiteSpace=wrap;labelBackgroundColor=none;fontColor=#1D3557;" vertex="1" parent="zYAFex58_-Hg5FmRaFq3-118">
          <mxGeometry y="50" width="175" height="170" as="geometry" />
        </mxCell>
        <mxCell id="zYAFex58_-Hg5FmRaFq3-120" value="WorkOrderPartReplacement" style="swimlane;childLayout=stackLayout;horizontal=1;startSize=50;horizontalStack=0;rounded=1;fontSize=14;fontStyle=0;strokeWidth=2;resizeParent=0;resizeLast=1;shadow=0;dashed=0;align=center;arcSize=4;whiteSpace=wrap;html=1;labelBackgroundColor=none;fillColor=#A8DADC;strokeColor=#457B9D;fontColor=#1D3557;" vertex="1" parent="1">
          <mxGeometry x="110" y="870" width="202.5" height="120" as="geometry" />
        </mxCell>
        <mxCell id="zYAFex58_-Hg5FmRaFq3-121" value="&lt;strong data-end=&quot;4090&quot; data-start=&quot;4066&quot;&gt;WorkOrderID + PartID&lt;/strong&gt; (PK)&lt;div&gt;SupplierID (nullable FK)&lt;/div&gt;&lt;div&gt;Quantity&amp;nbsp;&lt;/div&gt;&lt;div&gt;UnitCost&lt;/div&gt;" style="align=left;strokeColor=none;fillColor=none;spacingLeft=4;spacingRight=4;fontSize=12;verticalAlign=top;resizable=0;rotatable=0;part=1;html=1;whiteSpace=wrap;labelBackgroundColor=none;fontColor=#1D3557;" vertex="1" parent="zYAFex58_-Hg5FmRaFq3-120">
          <mxGeometry y="50" width="202.5" height="70" as="geometry" />
        </mxCell>
        <mxCell id="zYAFex58_-Hg5FmRaFq3-122" value="FuelingEvent" style="swimlane;childLayout=stackLayout;horizontal=1;startSize=50;horizontalStack=0;rounded=1;fontSize=14;fontStyle=0;strokeWidth=2;resizeParent=0;resizeLast=1;shadow=0;dashed=0;align=center;arcSize=4;whiteSpace=wrap;html=1;labelBackgroundColor=none;fillColor=#A8DADC;strokeColor=#457B9D;fontColor=#1D3557;" vertex="1" parent="1">
          <mxGeometry x="1360" y="230" width="160" height="150" as="geometry" />
        </mxCell>
        <mxCell id="zYAFex58_-Hg5FmRaFq3-123" value="&lt;strong data-end=&quot;4181&quot; data-start=&quot;4166&quot;&gt;FuelEventID&lt;/strong&gt; (PK)&lt;div&gt;VehicleID (FK)&lt;/div&gt;&lt;div&gt;FuelTypeID (FK)&lt;/div&gt;&lt;div&gt;FuelDT&lt;/div&gt;&lt;div&gt;Liters&lt;/div&gt;&lt;div&gt;Cost&lt;/div&gt;" style="align=left;strokeColor=none;fillColor=none;spacingLeft=4;spacingRight=4;fontSize=12;verticalAlign=top;resizable=0;rotatable=0;part=1;html=1;whiteSpace=wrap;labelBackgroundColor=none;fontColor=#1D3557;" vertex="1" parent="zYAFex58_-Hg5FmRaFq3-122">
          <mxGeometry y="50" width="160" height="100" as="geometry" />
        </mxCell>
        <mxCell id="zYAFex58_-Hg5FmRaFq3-125" value="Employee" style="swimlane;childLayout=stackLayout;horizontal=1;startSize=50;horizontalStack=0;rounded=1;fontSize=14;fontStyle=0;strokeWidth=2;resizeParent=0;resizeLast=1;shadow=0;dashed=0;align=center;arcSize=4;whiteSpace=wrap;html=1;labelBackgroundColor=none;fillColor=#A8DADC;strokeColor=#457B9D;fontColor=#1D3557;" vertex="1" parent="1">
          <mxGeometry x="940" y="260" width="160" height="320" as="geometry" />
        </mxCell>
        <mxCell id="zYAFex58_-Hg5FmRaFq3-290" value="&lt;strong data-end=&quot;4295&quot; data-start=&quot;4286&quot;&gt;EmpID&lt;/strong&gt; (PK)&lt;div&gt;FirstName&lt;/div&gt;&lt;div&gt;LastName&lt;/div&gt;&lt;div&gt;NationalID&lt;/div&gt;&lt;div&gt;DateOfBirth&lt;/div&gt;&lt;div&gt;HireDate&lt;/div&gt;&lt;div&gt;DepartmentID (FK)&lt;/div&gt;&lt;div&gt;Email&lt;/div&gt;&lt;div&gt;PhoneNumber&lt;/div&gt;&lt;div&gt;Gender&lt;/div&gt;&lt;div&gt;Address&lt;/div&gt;&lt;div&gt;EmergencyName EmergencyPhone&lt;/div&gt;&lt;div&gt;BankAccountNo BaseSalary&lt;/div&gt;&lt;div&gt;PhotoUrl&lt;/div&gt;&lt;div&gt;CreatedAt&lt;/div&gt;&lt;div&gt;UpdatedAt&lt;/div&gt;" style="align=left;strokeColor=none;fillColor=none;spacingLeft=4;spacingRight=4;fontSize=12;verticalAlign=top;resizable=0;rotatable=0;part=1;html=1;whiteSpace=wrap;labelBackgroundColor=none;fontColor=#1D3557;" vertex="1" parent="zYAFex58_-Hg5FmRaFq3-125">
          <mxGeometry y="50" width="160" height="270" as="geometry" />
        </mxCell>
        <mxCell id="zYAFex58_-Hg5FmRaFq3-219" style="edgeStyle=orthogonalEdgeStyle;rounded=0;orthogonalLoop=1;jettySize=auto;html=1;exitX=0.5;exitY=1;exitDx=0;exitDy=0;labelBackgroundColor=none;strokeColor=#457B9D;fontColor=default;" edge="1" parent="zYAFex58_-Hg5FmRaFq3-125">
          <mxGeometry relative="1" as="geometry">
            <mxPoint x="80" y="320" as="sourcePoint" />
            <mxPoint x="80" y="320" as="targetPoint" />
          </mxGeometry>
        </mxCell>
        <mxCell id="zYAFex58_-Hg5FmRaFq3-127" value="EmployeeRoleHistory" style="swimlane;childLayout=stackLayout;horizontal=1;startSize=50;horizontalStack=0;rounded=1;fontSize=14;fontStyle=0;strokeWidth=2;resizeParent=0;resizeLast=1;shadow=0;dashed=0;align=center;arcSize=4;whiteSpace=wrap;html=1;labelBackgroundColor=none;fillColor=#A8DADC;strokeColor=#457B9D;fontColor=#1D3557;" vertex="1" parent="1">
          <mxGeometry x="700" y="260" width="160" height="110" as="geometry" />
        </mxCell>
        <mxCell id="zYAFex58_-Hg5FmRaFq3-128" value="&lt;strong data-end=&quot;4562&quot; data-start=&quot;4539&quot;&gt;EmpID + RoleStartDT&lt;/strong&gt; (PK)&lt;div&gt;RoleEndDT&lt;/div&gt;&lt;div&gt;RoleID (FK)&lt;/div&gt;" style="align=left;strokeColor=none;fillColor=none;spacingLeft=4;spacingRight=4;fontSize=12;verticalAlign=top;resizable=0;rotatable=0;part=1;html=1;whiteSpace=wrap;labelBackgroundColor=none;fontColor=#1D3557;" vertex="1" parent="zYAFex58_-Hg5FmRaFq3-127">
          <mxGeometry y="50" width="160" height="60" as="geometry" />
        </mxCell>
        <mxCell id="zYAFex58_-Hg5FmRaFq3-129" value="Shift" style="swimlane;childLayout=stackLayout;horizontal=1;startSize=50;horizontalStack=0;rounded=1;fontSize=14;fontStyle=0;strokeWidth=2;resizeParent=0;resizeLast=1;shadow=0;dashed=0;align=center;arcSize=4;whiteSpace=wrap;html=1;labelBackgroundColor=none;fillColor=#A8DADC;strokeColor=#457B9D;fontColor=#1D3557;" vertex="1" parent="1">
          <mxGeometry x="1132.5" y="235" width="175" height="160" as="geometry" />
        </mxCell>
        <mxCell id="zYAFex58_-Hg5FmRaFq3-130" value="&lt;strong data-end=&quot;4619&quot; data-start=&quot;4608&quot;&gt;ShiftID&lt;/strong&gt; (PK)&lt;div&gt;EmpID (FK)&lt;/div&gt;&lt;div&gt;ShiftTypeID (FK)&lt;/div&gt;&lt;div&gt;ShiftStartDT&amp;nbsp;&lt;/div&gt;&lt;div&gt;ShiftEndDT&lt;/div&gt;&lt;div&gt;HoursWorked&lt;/div&gt;&lt;div&gt;OvertimeHrs&lt;/div&gt;&lt;div&gt;&lt;br&gt;&lt;/div&gt;" style="align=left;strokeColor=none;fillColor=none;spacingLeft=4;spacingRight=4;fontSize=12;verticalAlign=top;resizable=0;rotatable=0;part=1;html=1;whiteSpace=wrap;labelBackgroundColor=none;fontColor=#1D3557;" vertex="1" parent="zYAFex58_-Hg5FmRaFq3-129">
          <mxGeometry y="50" width="175" height="110" as="geometry" />
        </mxCell>
        <mxCell id="zYAFex58_-Hg5FmRaFq3-131" value="PayrollTxn" style="swimlane;childLayout=stackLayout;horizontal=1;startSize=50;horizontalStack=0;rounded=1;fontSize=14;fontStyle=0;strokeWidth=2;resizeParent=0;resizeLast=1;shadow=0;dashed=0;align=center;arcSize=4;whiteSpace=wrap;html=1;labelBackgroundColor=none;fillColor=#A8DADC;strokeColor=#457B9D;fontColor=#1D3557;" vertex="1" parent="1">
          <mxGeometry x="640" y="840" width="175" height="160" as="geometry" />
        </mxCell>
        <mxCell id="zYAFex58_-Hg5FmRaFq3-132" value="&lt;div&gt;&lt;strong data-end=&quot;4743&quot; data-start=&quot;4730&quot;&gt;PayrollID&lt;/strong&gt; (PK)&lt;/div&gt;&lt;div&gt;EmpID (FK)&lt;/div&gt;&lt;div&gt;PeriodMonth&lt;/div&gt;&lt;div&gt;GrossPay&lt;/div&gt;&lt;div&gt;NetPay&lt;/div&gt;&lt;div&gt;TaxAmt&lt;/div&gt;&lt;div&gt;InsuranceAmt&lt;/div&gt;" style="align=left;strokeColor=none;fillColor=none;spacingLeft=4;spacingRight=4;fontSize=12;verticalAlign=top;resizable=0;rotatable=0;part=1;html=1;whiteSpace=wrap;labelBackgroundColor=none;fontColor=#1D3557;" vertex="1" parent="zYAFex58_-Hg5FmRaFq3-131">
          <mxGeometry y="50" width="175" height="110" as="geometry" />
        </mxCell>
        <mxCell id="zYAFex58_-Hg5FmRaFq3-134" style="edgeStyle=orthogonalEdgeStyle;rounded=0;orthogonalLoop=1;jettySize=auto;html=1;exitX=0.5;exitY=1;exitDx=0;exitDy=0;entryX=0.5;entryY=0;entryDx=0;entryDy=0;labelBackgroundColor=none;strokeColor=#457B9D;fontColor=default;" edge="1" parent="1" source="zYAFex58_-Hg5FmRaFq3-133" target="zYAFex58_-Hg5FmRaFq3-89">
          <mxGeometry relative="1" as="geometry" />
        </mxCell>
        <mxCell id="zYAFex58_-Hg5FmRaFq3-133" value="Has" style="shape=rhombus;perimeter=rhombusPerimeter;whiteSpace=wrap;html=1;align=center;labelBackgroundColor=none;fillColor=#A8DADC;strokeColor=#457B9D;fontColor=#1D3557;" vertex="1" parent="1">
          <mxGeometry x="-2060" y="190" width="120" height="60" as="geometry" />
        </mxCell>
        <mxCell id="zYAFex58_-Hg5FmRaFq3-135" value="" style="endArrow=none;html=1;rounded=0;exitX=0.5;exitY=0;exitDx=0;exitDy=0;entryX=0.5;entryY=1;entryDx=0;entryDy=0;labelBackgroundColor=none;strokeColor=#457B9D;fontColor=default;" edge="1" parent="1" source="zYAFex58_-Hg5FmRaFq3-133" target="zYAFex58_-Hg5FmRaFq3-39">
          <mxGeometry relative="1" as="geometry">
            <mxPoint x="-1850" y="260" as="sourcePoint" />
            <mxPoint x="-1690" y="260" as="targetPoint" />
          </mxGeometry>
        </mxCell>
        <mxCell id="zYAFex58_-Hg5FmRaFq3-138" style="edgeStyle=orthogonalEdgeStyle;rounded=0;orthogonalLoop=1;jettySize=auto;html=1;exitX=0.5;exitY=1;exitDx=0;exitDy=0;entryX=0.5;entryY=0;entryDx=0;entryDy=0;labelBackgroundColor=none;strokeColor=#457B9D;fontColor=default;" edge="1" parent="1" source="zYAFex58_-Hg5FmRaFq3-136" target="zYAFex58_-Hg5FmRaFq3-91">
          <mxGeometry relative="1" as="geometry" />
        </mxCell>
        <mxCell id="zYAFex58_-Hg5FmRaFq3-136" value="Has" style="shape=rhombus;perimeter=rhombusPerimeter;whiteSpace=wrap;html=1;align=center;labelBackgroundColor=none;fillColor=#A8DADC;strokeColor=#457B9D;fontColor=#1D3557;" vertex="1" parent="1">
          <mxGeometry x="-1820" y="190" width="120" height="60" as="geometry" />
        </mxCell>
        <mxCell id="zYAFex58_-Hg5FmRaFq3-139" value="" style="endArrow=none;html=1;rounded=0;entryX=0.5;entryY=0;entryDx=0;entryDy=0;exitX=0.5;exitY=1;exitDx=0;exitDy=0;labelBackgroundColor=none;strokeColor=#457B9D;fontColor=default;" edge="1" parent="1" source="zYAFex58_-Hg5FmRaFq3-41" target="zYAFex58_-Hg5FmRaFq3-136">
          <mxGeometry relative="1" as="geometry">
            <mxPoint x="-2030" y="160" as="sourcePoint" />
            <mxPoint x="-1870" y="160" as="targetPoint" />
          </mxGeometry>
        </mxCell>
        <mxCell id="zYAFex58_-Hg5FmRaFq3-140" value="Has" style="shape=rhombus;perimeter=rhombusPerimeter;whiteSpace=wrap;html=1;align=center;labelBackgroundColor=none;fillColor=#A8DADC;strokeColor=#457B9D;fontColor=#1D3557;" vertex="1" parent="1">
          <mxGeometry x="-1640" y="200" width="120" height="60" as="geometry" />
        </mxCell>
        <mxCell id="zYAFex58_-Hg5FmRaFq3-141" value="" style="endArrow=none;html=1;rounded=0;exitX=0.5;exitY=0;exitDx=0;exitDy=0;entryX=0.5;entryY=1;entryDx=0;entryDy=0;labelBackgroundColor=none;strokeColor=#457B9D;fontColor=default;" edge="1" parent="1" source="zYAFex58_-Hg5FmRaFq3-140" target="zYAFex58_-Hg5FmRaFq3-43">
          <mxGeometry relative="1" as="geometry">
            <mxPoint x="-1570" y="350" as="sourcePoint" />
            <mxPoint x="-1410" y="350" as="targetPoint" />
          </mxGeometry>
        </mxCell>
        <mxCell id="zYAFex58_-Hg5FmRaFq3-143" style="edgeStyle=orthogonalEdgeStyle;rounded=0;orthogonalLoop=1;jettySize=auto;html=1;exitX=0.5;exitY=1;exitDx=0;exitDy=0;entryX=0.447;entryY=-0.007;entryDx=0;entryDy=0;entryPerimeter=0;labelBackgroundColor=none;strokeColor=#457B9D;fontColor=default;" edge="1" parent="1" source="zYAFex58_-Hg5FmRaFq3-140" target="zYAFex58_-Hg5FmRaFq3-85">
          <mxGeometry relative="1" as="geometry" />
        </mxCell>
        <mxCell id="zYAFex58_-Hg5FmRaFq3-144" value="Has" style="shape=rhombus;perimeter=rhombusPerimeter;whiteSpace=wrap;html=1;align=center;labelBackgroundColor=none;fillColor=#A8DADC;strokeColor=#457B9D;fontColor=#1D3557;" vertex="1" parent="1">
          <mxGeometry x="-1460" y="210" width="120" height="60" as="geometry" />
        </mxCell>
        <mxCell id="zYAFex58_-Hg5FmRaFq3-146" style="edgeStyle=orthogonalEdgeStyle;rounded=0;orthogonalLoop=1;jettySize=auto;html=1;exitX=0.5;exitY=1;exitDx=0;exitDy=0;entryX=0.423;entryY=-0.008;entryDx=0;entryDy=0;entryPerimeter=0;labelBackgroundColor=none;strokeColor=#457B9D;fontColor=default;" edge="1" parent="1" source="zYAFex58_-Hg5FmRaFq3-144" target="zYAFex58_-Hg5FmRaFq3-95">
          <mxGeometry relative="1" as="geometry" />
        </mxCell>
        <mxCell id="zYAFex58_-Hg5FmRaFq3-147" value="" style="endArrow=none;html=1;rounded=0;entryX=0.5;entryY=0;entryDx=0;entryDy=0;exitX=0.5;exitY=1;exitDx=0;exitDy=0;labelBackgroundColor=none;strokeColor=#457B9D;fontColor=default;" edge="1" parent="1" source="zYAFex58_-Hg5FmRaFq3-45" target="zYAFex58_-Hg5FmRaFq3-144">
          <mxGeometry relative="1" as="geometry">
            <mxPoint x="-1700" y="250" as="sourcePoint" />
            <mxPoint x="-1540" y="250" as="targetPoint" />
          </mxGeometry>
        </mxCell>
        <mxCell id="zYAFex58_-Hg5FmRaFq3-151" style="edgeStyle=orthogonalEdgeStyle;rounded=0;orthogonalLoop=1;jettySize=auto;html=1;exitX=0.5;exitY=1;exitDx=0;exitDy=0;entryX=0.5;entryY=0;entryDx=0;entryDy=0;labelBackgroundColor=none;strokeColor=#457B9D;fontColor=default;" edge="1" parent="1" source="zYAFex58_-Hg5FmRaFq3-148" target="zYAFex58_-Hg5FmRaFq3-99">
          <mxGeometry relative="1" as="geometry" />
        </mxCell>
        <mxCell id="zYAFex58_-Hg5FmRaFq3-148" value="Has" style="shape=rhombus;perimeter=rhombusPerimeter;whiteSpace=wrap;html=1;align=center;labelBackgroundColor=none;fillColor=#A8DADC;strokeColor=#457B9D;fontColor=#1D3557;" vertex="1" parent="1">
          <mxGeometry x="-1220" y="180" width="120" height="60" as="geometry" />
        </mxCell>
        <mxCell id="zYAFex58_-Hg5FmRaFq3-149" value="" style="endArrow=none;html=1;rounded=0;exitX=0.5;exitY=0;exitDx=0;exitDy=0;entryX=0.5;entryY=1;entryDx=0;entryDy=0;labelBackgroundColor=none;strokeColor=#457B9D;fontColor=default;" edge="1" parent="1" source="zYAFex58_-Hg5FmRaFq3-148" target="zYAFex58_-Hg5FmRaFq3-49">
          <mxGeometry relative="1" as="geometry">
            <mxPoint x="-1080" y="130" as="sourcePoint" />
            <mxPoint x="-920" y="130" as="targetPoint" />
          </mxGeometry>
        </mxCell>
        <mxCell id="zYAFex58_-Hg5FmRaFq3-152" value="Has" style="shape=rhombus;perimeter=rhombusPerimeter;whiteSpace=wrap;html=1;align=center;labelBackgroundColor=none;fillColor=#A8DADC;strokeColor=#457B9D;fontColor=#1D3557;" vertex="1" parent="1">
          <mxGeometry x="-1077.5" y="190" width="120" height="60" as="geometry" />
        </mxCell>
        <mxCell id="zYAFex58_-Hg5FmRaFq3-155" style="edgeStyle=orthogonalEdgeStyle;rounded=0;orthogonalLoop=1;jettySize=auto;html=1;exitX=0.5;exitY=1;exitDx=0;exitDy=0;entryX=0.868;entryY=-0.011;entryDx=0;entryDy=0;entryPerimeter=0;labelBackgroundColor=none;strokeColor=#457B9D;fontColor=default;" edge="1" parent="1" source="zYAFex58_-Hg5FmRaFq3-152" target="zYAFex58_-Hg5FmRaFq3-99">
          <mxGeometry relative="1" as="geometry" />
        </mxCell>
        <mxCell id="zYAFex58_-Hg5FmRaFq3-156" value="" style="endArrow=none;html=1;rounded=0;exitX=0.5;exitY=0;exitDx=0;exitDy=0;entryX=0.048;entryY=1;entryDx=0;entryDy=0;entryPerimeter=0;labelBackgroundColor=none;strokeColor=#457B9D;fontColor=default;" edge="1" parent="1" source="zYAFex58_-Hg5FmRaFq3-152" target="zYAFex58_-Hg5FmRaFq3-52">
          <mxGeometry relative="1" as="geometry">
            <mxPoint x="-860" y="230" as="sourcePoint" />
            <mxPoint x="-700" y="230" as="targetPoint" />
          </mxGeometry>
        </mxCell>
        <mxCell id="zYAFex58_-Hg5FmRaFq3-157" value="Uses" style="shape=rhombus;perimeter=rhombusPerimeter;whiteSpace=wrap;html=1;align=center;labelBackgroundColor=none;fillColor=#A8DADC;strokeColor=#457B9D;fontColor=#1D3557;" vertex="1" parent="1">
          <mxGeometry x="-840" y="170" width="120" height="60" as="geometry" />
        </mxCell>
        <mxCell id="zYAFex58_-Hg5FmRaFq3-158" value="" style="endArrow=none;html=1;rounded=0;exitX=0.403;exitY=1.011;exitDx=0;exitDy=0;exitPerimeter=0;entryX=0.5;entryY=0;entryDx=0;entryDy=0;labelBackgroundColor=none;strokeColor=#457B9D;fontColor=default;" edge="1" parent="1" source="zYAFex58_-Hg5FmRaFq3-64" target="zYAFex58_-Hg5FmRaFq3-157">
          <mxGeometry relative="1" as="geometry">
            <mxPoint x="-640" y="250" as="sourcePoint" />
            <mxPoint x="-480" y="250" as="targetPoint" />
          </mxGeometry>
        </mxCell>
        <mxCell id="zYAFex58_-Hg5FmRaFq3-159" style="edgeStyle=orthogonalEdgeStyle;rounded=0;orthogonalLoop=1;jettySize=auto;html=1;exitX=0.5;exitY=1;exitDx=0;exitDy=0;entryX=0.595;entryY=0;entryDx=0;entryDy=0;entryPerimeter=0;labelBackgroundColor=none;strokeColor=#457B9D;fontColor=default;" edge="1" parent="1" source="zYAFex58_-Hg5FmRaFq3-157" target="zYAFex58_-Hg5FmRaFq3-103">
          <mxGeometry relative="1" as="geometry" />
        </mxCell>
        <mxCell id="zYAFex58_-Hg5FmRaFq3-160" value="Has" style="shape=rhombus;perimeter=rhombusPerimeter;whiteSpace=wrap;html=1;align=center;labelBackgroundColor=none;fillColor=#A8DADC;strokeColor=#457B9D;fontColor=#1D3557;" vertex="1" parent="1">
          <mxGeometry x="-457.5" y="160" width="120" height="60" as="geometry" />
        </mxCell>
        <mxCell id="zYAFex58_-Hg5FmRaFq3-161" value="LkpCardStatus" style="swimlane;childLayout=stackLayout;horizontal=1;startSize=50;horizontalStack=0;rounded=1;fontSize=14;fontStyle=0;strokeWidth=2;resizeParent=0;resizeLast=1;shadow=0;dashed=0;align=center;arcSize=4;whiteSpace=wrap;html=1;labelBackgroundColor=none;fillColor=#A8DADC;strokeColor=#457B9D;fontColor=#1D3557;" vertex="1" parent="1">
          <mxGeometry x="-467.5" y="20" width="160" height="120" as="geometry" />
        </mxCell>
        <mxCell id="zYAFex58_-Hg5FmRaFq3-162" value="&lt;div&gt;&lt;strong data-end=&quot;834&quot; data-start=&quot;818&quot;&gt;CardStatusID&lt;/strong&gt; (PK)&lt;/div&gt;&lt;div&gt;StatusCode&lt;/div&gt;&lt;div&gt;Label_EN&lt;/div&gt;&lt;div&gt;Label_FA&lt;/div&gt;" style="align=left;strokeColor=none;fillColor=none;spacingLeft=4;spacingRight=4;fontSize=12;verticalAlign=top;resizable=0;rotatable=0;part=1;html=1;whiteSpace=wrap;labelBackgroundColor=none;fontColor=#1D3557;" vertex="1" parent="zYAFex58_-Hg5FmRaFq3-161">
          <mxGeometry y="50" width="160" height="70" as="geometry" />
        </mxCell>
        <mxCell id="zYAFex58_-Hg5FmRaFq3-163" value="Has" style="shape=rhombus;perimeter=rhombusPerimeter;whiteSpace=wrap;html=1;align=center;labelBackgroundColor=none;fillColor=#A8DADC;strokeColor=#457B9D;fontColor=#1D3557;" vertex="1" parent="1">
          <mxGeometry x="-640" y="180" width="120" height="60" as="geometry" />
        </mxCell>
        <mxCell id="zYAFex58_-Hg5FmRaFq3-164" value="" style="endArrow=none;html=1;rounded=0;entryX=0.462;entryY=1.029;entryDx=0;entryDy=0;entryPerimeter=0;exitX=0.5;exitY=0;exitDx=0;exitDy=0;labelBackgroundColor=none;strokeColor=#457B9D;fontColor=default;" edge="1" parent="1" source="zYAFex58_-Hg5FmRaFq3-163" target="zYAFex58_-Hg5FmRaFq3-54">
          <mxGeometry relative="1" as="geometry">
            <mxPoint x="-580" y="180" as="sourcePoint" />
            <mxPoint x="-440" y="180" as="targetPoint" />
          </mxGeometry>
        </mxCell>
        <mxCell id="zYAFex58_-Hg5FmRaFq3-165" style="edgeStyle=orthogonalEdgeStyle;rounded=0;orthogonalLoop=1;jettySize=auto;html=1;exitX=0.5;exitY=1;exitDx=0;exitDy=0;entryX=0.593;entryY=0.013;entryDx=0;entryDy=0;entryPerimeter=0;labelBackgroundColor=none;strokeColor=#457B9D;fontColor=default;" edge="1" parent="1" source="zYAFex58_-Hg5FmRaFq3-163" target="zYAFex58_-Hg5FmRaFq3-105">
          <mxGeometry relative="1" as="geometry" />
        </mxCell>
        <mxCell id="zYAFex58_-Hg5FmRaFq3-168" style="edgeStyle=orthogonalEdgeStyle;rounded=0;orthogonalLoop=1;jettySize=auto;html=1;exitX=0.5;exitY=1;exitDx=0;exitDy=0;entryX=0.872;entryY=-0.002;entryDx=0;entryDy=0;entryPerimeter=0;labelBackgroundColor=none;strokeColor=#457B9D;fontColor=default;" edge="1" parent="1" source="zYAFex58_-Hg5FmRaFq3-160" target="zYAFex58_-Hg5FmRaFq3-105">
          <mxGeometry relative="1" as="geometry" />
        </mxCell>
        <mxCell id="zYAFex58_-Hg5FmRaFq3-169" value="" style="endArrow=none;html=1;rounded=0;entryX=0.5;entryY=0;entryDx=0;entryDy=0;exitX=0.434;exitY=0.971;exitDx=0;exitDy=0;exitPerimeter=0;labelBackgroundColor=none;strokeColor=#457B9D;fontColor=default;" edge="1" parent="1" source="zYAFex58_-Hg5FmRaFq3-162" target="zYAFex58_-Hg5FmRaFq3-160">
          <mxGeometry relative="1" as="geometry">
            <mxPoint x="-600" y="180" as="sourcePoint" />
            <mxPoint x="-440" y="180" as="targetPoint" />
          </mxGeometry>
        </mxCell>
        <mxCell id="zYAFex58_-Hg5FmRaFq3-170" value="Sales Through" style="shape=rhombus;perimeter=rhombusPerimeter;whiteSpace=wrap;html=1;align=center;labelBackgroundColor=none;fillColor=#A8DADC;strokeColor=#457B9D;fontColor=#1D3557;" vertex="1" parent="1">
          <mxGeometry x="-320" y="180" width="120" height="60" as="geometry" />
        </mxCell>
        <mxCell id="zYAFex58_-Hg5FmRaFq3-171" value="Sales Through" style="shape=rhombus;perimeter=rhombusPerimeter;whiteSpace=wrap;html=1;align=center;labelBackgroundColor=none;fillColor=#A8DADC;strokeColor=#457B9D;fontColor=#1D3557;" vertex="1" parent="1">
          <mxGeometry x="-112.5" y="170" width="120" height="60" as="geometry" />
        </mxCell>
        <mxCell id="zYAFex58_-Hg5FmRaFq3-172" style="edgeStyle=orthogonalEdgeStyle;rounded=0;orthogonalLoop=1;jettySize=auto;html=1;exitX=0.5;exitY=1;exitDx=0;exitDy=0;entryX=0.809;entryY=-0.003;entryDx=0;entryDy=0;entryPerimeter=0;labelBackgroundColor=none;strokeColor=#457B9D;fontColor=default;" edge="1" parent="1" source="zYAFex58_-Hg5FmRaFq3-170" target="zYAFex58_-Hg5FmRaFq3-107">
          <mxGeometry relative="1" as="geometry" />
        </mxCell>
        <mxCell id="zYAFex58_-Hg5FmRaFq3-173" style="edgeStyle=orthogonalEdgeStyle;rounded=0;orthogonalLoop=1;jettySize=auto;html=1;exitX=0.5;exitY=1;exitDx=0;exitDy=0;entryX=0.45;entryY=0.005;entryDx=0;entryDy=0;entryPerimeter=0;labelBackgroundColor=none;strokeColor=#457B9D;fontColor=default;" edge="1" parent="1" source="zYAFex58_-Hg5FmRaFq3-171" target="zYAFex58_-Hg5FmRaFq3-111">
          <mxGeometry relative="1" as="geometry" />
        </mxCell>
        <mxCell id="zYAFex58_-Hg5FmRaFq3-174" value="" style="endArrow=none;html=1;rounded=0;entryX=0.5;entryY=0;entryDx=0;entryDy=0;exitX=0.123;exitY=1;exitDx=0;exitDy=0;exitPerimeter=0;labelBackgroundColor=none;strokeColor=#457B9D;fontColor=default;" edge="1" parent="1" source="zYAFex58_-Hg5FmRaFq3-69" target="zYAFex58_-Hg5FmRaFq3-170">
          <mxGeometry relative="1" as="geometry">
            <mxPoint x="-490" y="230" as="sourcePoint" />
            <mxPoint x="-330" y="230" as="targetPoint" />
          </mxGeometry>
        </mxCell>
        <mxCell id="zYAFex58_-Hg5FmRaFq3-175" value="" style="endArrow=none;html=1;rounded=0;entryX=0.5;entryY=0;entryDx=0;entryDy=0;exitX=0.75;exitY=1;exitDx=0;exitDy=0;labelBackgroundColor=none;strokeColor=#457B9D;fontColor=default;" edge="1" parent="1" source="zYAFex58_-Hg5FmRaFq3-69" target="zYAFex58_-Hg5FmRaFq3-171">
          <mxGeometry relative="1" as="geometry">
            <mxPoint x="-490" y="230" as="sourcePoint" />
            <mxPoint x="-330" y="230" as="targetPoint" />
          </mxGeometry>
        </mxCell>
        <mxCell id="zYAFex58_-Hg5FmRaFq3-176" value="Has" style="shape=rhombus;perimeter=rhombusPerimeter;whiteSpace=wrap;html=1;align=center;labelBackgroundColor=none;fillColor=#A8DADC;strokeColor=#457B9D;fontColor=#1D3557;" vertex="1" parent="1">
          <mxGeometry x="125" y="160" width="120" height="60" as="geometry" />
        </mxCell>
        <mxCell id="zYAFex58_-Hg5FmRaFq3-178" style="edgeStyle=orthogonalEdgeStyle;rounded=0;orthogonalLoop=1;jettySize=auto;html=1;exitX=0.5;exitY=1;exitDx=0;exitDy=0;entryX=0.59;entryY=0.01;entryDx=0;entryDy=0;entryPerimeter=0;labelBackgroundColor=none;strokeColor=#457B9D;fontColor=default;" edge="1" parent="1" source="zYAFex58_-Hg5FmRaFq3-176" target="zYAFex58_-Hg5FmRaFq3-118">
          <mxGeometry relative="1" as="geometry" />
        </mxCell>
        <mxCell id="zYAFex58_-Hg5FmRaFq3-179" value="" style="endArrow=none;html=1;rounded=0;entryX=0.5;entryY=0;entryDx=0;entryDy=0;exitX=0.5;exitY=1;exitDx=0;exitDy=0;labelBackgroundColor=none;strokeColor=#457B9D;fontColor=default;" edge="1" parent="1" source="zYAFex58_-Hg5FmRaFq3-71" target="zYAFex58_-Hg5FmRaFq3-176">
          <mxGeometry relative="1" as="geometry">
            <mxPoint x="-270" y="230" as="sourcePoint" />
            <mxPoint x="-110" y="230" as="targetPoint" />
          </mxGeometry>
        </mxCell>
        <mxCell id="zYAFex58_-Hg5FmRaFq3-182" style="edgeStyle=orthogonalEdgeStyle;rounded=0;orthogonalLoop=1;jettySize=auto;html=1;exitX=0.5;exitY=1;exitDx=0;exitDy=0;entryX=0.5;entryY=0;entryDx=0;entryDy=0;labelBackgroundColor=none;strokeColor=#457B9D;fontColor=default;" edge="1" parent="1" source="zYAFex58_-Hg5FmRaFq3-180" target="zYAFex58_-Hg5FmRaFq3-113">
          <mxGeometry relative="1" as="geometry" />
        </mxCell>
        <mxCell id="zYAFex58_-Hg5FmRaFq3-180" value="Belongs" style="shape=rhombus;perimeter=rhombusPerimeter;whiteSpace=wrap;html=1;align=center;labelBackgroundColor=none;fillColor=#A8DADC;strokeColor=#457B9D;fontColor=#1D3557;" vertex="1" parent="1">
          <mxGeometry x="360" y="180" width="120" height="60" as="geometry" />
        </mxCell>
        <mxCell id="zYAFex58_-Hg5FmRaFq3-181" value="" style="endArrow=none;html=1;rounded=0;entryX=0.5;entryY=0;entryDx=0;entryDy=0;exitX=0.454;exitY=0.973;exitDx=0;exitDy=0;exitPerimeter=0;labelBackgroundColor=none;strokeColor=#457B9D;fontColor=default;" edge="1" parent="1" source="zYAFex58_-Hg5FmRaFq3-73" target="zYAFex58_-Hg5FmRaFq3-180">
          <mxGeometry relative="1" as="geometry">
            <mxPoint x="290" y="330" as="sourcePoint" />
            <mxPoint x="450" y="330" as="targetPoint" />
          </mxGeometry>
        </mxCell>
        <mxCell id="zYAFex58_-Hg5FmRaFq3-184" style="edgeStyle=orthogonalEdgeStyle;rounded=0;orthogonalLoop=1;jettySize=auto;html=1;exitX=0.5;exitY=0;exitDx=0;exitDy=0;entryX=1;entryY=0.25;entryDx=0;entryDy=0;labelBackgroundColor=none;strokeColor=#457B9D;fontColor=default;" edge="1" parent="1" source="zYAFex58_-Hg5FmRaFq3-183" target="zYAFex58_-Hg5FmRaFq3-72">
          <mxGeometry relative="1" as="geometry" />
        </mxCell>
        <mxCell id="zYAFex58_-Hg5FmRaFq3-183" value="Parents Of" style="shape=rhombus;perimeter=rhombusPerimeter;whiteSpace=wrap;html=1;align=center;labelBackgroundColor=none;fillColor=#A8DADC;strokeColor=#457B9D;fontColor=#1D3557;" vertex="1" parent="1">
          <mxGeometry x="550" y="70" width="120" height="60" as="geometry" />
        </mxCell>
        <mxCell id="zYAFex58_-Hg5FmRaFq3-188" value="Has" style="shape=rhombus;perimeter=rhombusPerimeter;whiteSpace=wrap;html=1;align=center;labelBackgroundColor=none;fillColor=#A8DADC;strokeColor=#457B9D;fontColor=#1D3557;" vertex="1" parent="1">
          <mxGeometry x="700" y="170" width="120" height="60" as="geometry" />
        </mxCell>
        <mxCell id="zYAFex58_-Hg5FmRaFq3-189" style="edgeStyle=orthogonalEdgeStyle;rounded=0;orthogonalLoop=1;jettySize=auto;html=1;exitX=0.5;exitY=1;exitDx=0;exitDy=0;entryX=0.375;entryY=-0.004;entryDx=0;entryDy=0;entryPerimeter=0;labelBackgroundColor=none;strokeColor=#457B9D;fontColor=default;" edge="1" parent="1" source="zYAFex58_-Hg5FmRaFq3-188" target="zYAFex58_-Hg5FmRaFq3-127">
          <mxGeometry relative="1" as="geometry" />
        </mxCell>
        <mxCell id="zYAFex58_-Hg5FmRaFq3-190" value="" style="endArrow=none;html=1;rounded=0;entryX=0.5;entryY=0;entryDx=0;entryDy=0;exitX=0.25;exitY=1;exitDx=0;exitDy=0;labelBackgroundColor=none;strokeColor=#457B9D;fontColor=default;" edge="1" parent="1" source="zYAFex58_-Hg5FmRaFq3-75" target="zYAFex58_-Hg5FmRaFq3-188">
          <mxGeometry relative="1" as="geometry">
            <mxPoint x="360" y="210" as="sourcePoint" />
            <mxPoint x="520" y="210" as="targetPoint" />
          </mxGeometry>
        </mxCell>
        <mxCell id="zYAFex58_-Hg5FmRaFq3-192" value="Belongs" style="shape=rhombus;perimeter=rhombusPerimeter;whiteSpace=wrap;html=1;align=center;labelBackgroundColor=none;fillColor=#A8DADC;strokeColor=#457B9D;fontColor=#1D3557;" vertex="1" parent="1">
          <mxGeometry x="950" y="170" width="120" height="60" as="geometry" />
        </mxCell>
        <mxCell id="zYAFex58_-Hg5FmRaFq3-194" style="edgeStyle=orthogonalEdgeStyle;rounded=0;orthogonalLoop=1;jettySize=auto;html=1;exitX=0.5;exitY=1;exitDx=0;exitDy=0;entryX=0.442;entryY=0.01;entryDx=0;entryDy=0;entryPerimeter=0;labelBackgroundColor=none;strokeColor=#457B9D;fontColor=default;" edge="1" parent="1" source="zYAFex58_-Hg5FmRaFq3-192" target="zYAFex58_-Hg5FmRaFq3-125">
          <mxGeometry relative="1" as="geometry" />
        </mxCell>
        <mxCell id="zYAFex58_-Hg5FmRaFq3-195" value="" style="endArrow=none;html=1;rounded=0;exitX=0.5;exitY=0;exitDx=0;exitDy=0;entryX=0.5;entryY=1;entryDx=0;entryDy=0;labelBackgroundColor=none;strokeColor=#457B9D;fontColor=default;" edge="1" parent="1" source="zYAFex58_-Hg5FmRaFq3-192" target="zYAFex58_-Hg5FmRaFq3-78">
          <mxGeometry relative="1" as="geometry">
            <mxPoint x="1060" y="210" as="sourcePoint" />
            <mxPoint x="1220" y="210" as="targetPoint" />
          </mxGeometry>
        </mxCell>
        <mxCell id="zYAFex58_-Hg5FmRaFq3-197" value="" style="endArrow=none;html=1;rounded=0;exitX=1.004;exitY=0.853;exitDx=0;exitDy=0;exitPerimeter=0;entryX=0.5;entryY=1;entryDx=0;entryDy=0;labelBackgroundColor=none;strokeColor=#457B9D;fontColor=default;" edge="1" parent="1" source="zYAFex58_-Hg5FmRaFq3-73" target="zYAFex58_-Hg5FmRaFq3-183">
          <mxGeometry relative="1" as="geometry">
            <mxPoint x="570" y="210" as="sourcePoint" />
            <mxPoint x="730" y="210" as="targetPoint" />
            <Array as="points">
              <mxPoint x="610" y="140" />
            </Array>
          </mxGeometry>
        </mxCell>
        <mxCell id="zYAFex58_-Hg5FmRaFq3-199" style="edgeStyle=orthogonalEdgeStyle;rounded=0;orthogonalLoop=1;jettySize=auto;html=1;exitX=0.5;exitY=1;exitDx=0;exitDy=0;entryX=0.5;entryY=0;entryDx=0;entryDy=0;labelBackgroundColor=none;strokeColor=#457B9D;fontColor=default;" edge="1" parent="1" source="zYAFex58_-Hg5FmRaFq3-198" target="zYAFex58_-Hg5FmRaFq3-129">
          <mxGeometry relative="1" as="geometry" />
        </mxCell>
        <mxCell id="zYAFex58_-Hg5FmRaFq3-198" value="Has" style="shape=rhombus;perimeter=rhombusPerimeter;whiteSpace=wrap;html=1;align=center;labelBackgroundColor=none;fillColor=#A8DADC;strokeColor=#457B9D;fontColor=#1D3557;" vertex="1" parent="1">
          <mxGeometry x="1160" y="150" width="120" height="60" as="geometry" />
        </mxCell>
        <mxCell id="zYAFex58_-Hg5FmRaFq3-200" value="" style="endArrow=none;html=1;rounded=0;entryX=0.5;entryY=0;entryDx=0;entryDy=0;exitX=0.5;exitY=1;exitDx=0;exitDy=0;labelBackgroundColor=none;strokeColor=#457B9D;fontColor=default;" edge="1" parent="1" source="zYAFex58_-Hg5FmRaFq3-80" target="zYAFex58_-Hg5FmRaFq3-198">
          <mxGeometry relative="1" as="geometry">
            <mxPoint x="780" y="310" as="sourcePoint" />
            <mxPoint x="940" y="310" as="targetPoint" />
          </mxGeometry>
        </mxCell>
        <mxCell id="zYAFex58_-Hg5FmRaFq3-202" value="Uses" style="shape=rhombus;perimeter=rhombusPerimeter;whiteSpace=wrap;html=1;align=center;labelBackgroundColor=none;fillColor=#A8DADC;strokeColor=#457B9D;fontColor=#1D3557;" vertex="1" parent="1">
          <mxGeometry x="1370" y="140" width="120" height="60" as="geometry" />
        </mxCell>
        <mxCell id="zYAFex58_-Hg5FmRaFq3-203" value="" style="endArrow=none;html=1;rounded=0;entryX=0.5;entryY=0;entryDx=0;entryDy=0;exitX=0.5;exitY=1;exitDx=0;exitDy=0;labelBackgroundColor=none;strokeColor=#457B9D;fontColor=default;" edge="1" parent="1" source="zYAFex58_-Hg5FmRaFq3-82" target="zYAFex58_-Hg5FmRaFq3-202">
          <mxGeometry relative="1" as="geometry">
            <mxPoint x="1110" y="310" as="sourcePoint" />
            <mxPoint x="1270" y="310" as="targetPoint" />
          </mxGeometry>
        </mxCell>
        <mxCell id="zYAFex58_-Hg5FmRaFq3-205" style="edgeStyle=orthogonalEdgeStyle;rounded=0;orthogonalLoop=1;jettySize=auto;html=1;exitX=0.5;exitY=1;exitDx=0;exitDy=0;entryX=0.445;entryY=-0.005;entryDx=0;entryDy=0;entryPerimeter=0;labelBackgroundColor=none;strokeColor=#457B9D;fontColor=default;" edge="1" parent="1" source="zYAFex58_-Hg5FmRaFq3-202" target="zYAFex58_-Hg5FmRaFq3-122">
          <mxGeometry relative="1" as="geometry" />
        </mxCell>
        <mxCell id="zYAFex58_-Hg5FmRaFq3-207" style="edgeStyle=orthogonalEdgeStyle;rounded=0;orthogonalLoop=1;jettySize=auto;html=1;exitX=0.5;exitY=1;exitDx=0;exitDy=0;entryX=0.5;entryY=0;entryDx=0;entryDy=0;labelBackgroundColor=none;strokeColor=#457B9D;fontColor=default;" edge="1" parent="1" source="zYAFex58_-Hg5FmRaFq3-206" target="zYAFex58_-Hg5FmRaFq3-87">
          <mxGeometry relative="1" as="geometry" />
        </mxCell>
        <mxCell id="zYAFex58_-Hg5FmRaFq3-206" value="Includes" style="shape=rhombus;perimeter=rhombusPerimeter;whiteSpace=wrap;html=1;align=center;labelBackgroundColor=none;fillColor=#A8DADC;strokeColor=#457B9D;fontColor=#1D3557;" vertex="1" parent="1">
          <mxGeometry x="-1650" y="520" width="120" height="60" as="geometry" />
        </mxCell>
        <mxCell id="zYAFex58_-Hg5FmRaFq3-208" value="" style="endArrow=none;html=1;rounded=0;exitX=0.5;exitY=0;exitDx=0;exitDy=0;entryX=0.46;entryY=0.98;entryDx=0;entryDy=0;entryPerimeter=0;labelBackgroundColor=none;strokeColor=#457B9D;fontColor=default;" edge="1" parent="1" source="zYAFex58_-Hg5FmRaFq3-206" target="zYAFex58_-Hg5FmRaFq3-86">
          <mxGeometry relative="1" as="geometry">
            <mxPoint x="-1320" y="510" as="sourcePoint" />
            <mxPoint x="-1160" y="510" as="targetPoint" />
          </mxGeometry>
        </mxCell>
        <mxCell id="zYAFex58_-Hg5FmRaFq3-209" value="Appears" style="shape=rhombus;perimeter=rhombusPerimeter;whiteSpace=wrap;html=1;align=center;labelBackgroundColor=none;fillColor=#A8DADC;strokeColor=#457B9D;fontColor=#1D3557;" vertex="1" parent="1">
          <mxGeometry x="-1660" y="750" width="120" height="60" as="geometry" />
        </mxCell>
        <mxCell id="zYAFex58_-Hg5FmRaFq3-211" style="edgeStyle=orthogonalEdgeStyle;rounded=0;orthogonalLoop=1;jettySize=auto;html=1;exitX=0.5;exitY=0;exitDx=0;exitDy=0;entryX=0.435;entryY=0.96;entryDx=0;entryDy=0;entryPerimeter=0;labelBackgroundColor=none;strokeColor=#457B9D;fontColor=default;" edge="1" parent="1" source="zYAFex58_-Hg5FmRaFq3-209" target="zYAFex58_-Hg5FmRaFq3-88">
          <mxGeometry relative="1" as="geometry" />
        </mxCell>
        <mxCell id="zYAFex58_-Hg5FmRaFq3-212" value="" style="endArrow=none;html=1;rounded=0;exitX=0.5;exitY=1;exitDx=0;exitDy=0;entryX=0.5;entryY=0;entryDx=0;entryDy=0;labelBackgroundColor=none;strokeColor=#457B9D;fontColor=default;" edge="1" parent="1" source="zYAFex58_-Hg5FmRaFq3-209" target="zYAFex58_-Hg5FmRaFq3-83">
          <mxGeometry relative="1" as="geometry">
            <mxPoint x="-1460" y="810" as="sourcePoint" />
            <mxPoint x="-1300" y="810" as="targetPoint" />
          </mxGeometry>
        </mxCell>
        <mxCell id="zYAFex58_-Hg5FmRaFq3-214" style="edgeStyle=orthogonalEdgeStyle;rounded=0;orthogonalLoop=1;jettySize=auto;html=1;exitX=0.5;exitY=0;exitDx=0;exitDy=0;entryX=0.25;entryY=1;entryDx=0;entryDy=0;labelBackgroundColor=none;strokeColor=#457B9D;fontColor=default;" edge="1" parent="1" source="zYAFex58_-Hg5FmRaFq3-213" target="zYAFex58_-Hg5FmRaFq3-92">
          <mxGeometry relative="1" as="geometry" />
        </mxCell>
        <mxCell id="zYAFex58_-Hg5FmRaFq3-213" value="Has" style="shape=rhombus;perimeter=rhombusPerimeter;whiteSpace=wrap;html=1;align=center;labelBackgroundColor=none;fillColor=#A8DADC;strokeColor=#457B9D;fontColor=#1D3557;" vertex="1" parent="1">
          <mxGeometry x="-1860" y="520" width="120" height="60" as="geometry" />
        </mxCell>
        <mxCell id="zYAFex58_-Hg5FmRaFq3-215" value="" style="endArrow=none;html=1;rounded=0;exitX=0;exitY=0.5;exitDx=0;exitDy=0;entryX=0.995;entryY=0.876;entryDx=0;entryDy=0;entryPerimeter=0;labelBackgroundColor=none;strokeColor=#457B9D;fontColor=default;" edge="1" parent="1" source="zYAFex58_-Hg5FmRaFq3-213" target="zYAFex58_-Hg5FmRaFq3-90">
          <mxGeometry relative="1" as="geometry">
            <mxPoint x="-1940" y="610" as="sourcePoint" />
            <mxPoint x="-1780" y="610" as="targetPoint" />
          </mxGeometry>
        </mxCell>
        <mxCell id="zYAFex58_-Hg5FmRaFq3-217" style="edgeStyle=orthogonalEdgeStyle;rounded=0;orthogonalLoop=1;jettySize=auto;html=1;exitX=0.5;exitY=1;exitDx=0;exitDy=0;entryX=0.5;entryY=0;entryDx=0;entryDy=0;labelBackgroundColor=none;strokeColor=#457B9D;fontColor=default;" edge="1" parent="1" source="zYAFex58_-Hg5FmRaFq3-216" target="zYAFex58_-Hg5FmRaFq3-93">
          <mxGeometry relative="1" as="geometry" />
        </mxCell>
        <mxCell id="zYAFex58_-Hg5FmRaFq3-216" value="Performs" style="shape=rhombus;perimeter=rhombusPerimeter;whiteSpace=wrap;html=1;align=center;labelBackgroundColor=none;fillColor=#A8DADC;strokeColor=#457B9D;fontColor=#1D3557;" vertex="1" parent="1">
          <mxGeometry x="-2070" y="600" width="120" height="60" as="geometry" />
        </mxCell>
        <mxCell id="zYAFex58_-Hg5FmRaFq3-218" value="" style="endArrow=none;html=1;rounded=0;exitX=0.5;exitY=0;exitDx=0;exitDy=0;entryX=0.453;entryY=0.994;entryDx=0;entryDy=0;entryPerimeter=0;labelBackgroundColor=none;strokeColor=#457B9D;fontColor=default;" edge="1" parent="1" source="zYAFex58_-Hg5FmRaFq3-216" target="zYAFex58_-Hg5FmRaFq3-90">
          <mxGeometry relative="1" as="geometry">
            <mxPoint x="-2010" y="570" as="sourcePoint" />
            <mxPoint x="-1850" y="570" as="targetPoint" />
          </mxGeometry>
        </mxCell>
        <mxCell id="zYAFex58_-Hg5FmRaFq3-223" style="edgeStyle=orthogonalEdgeStyle;rounded=0;orthogonalLoop=1;jettySize=auto;html=1;exitX=0.5;exitY=1;exitDx=0;exitDy=0;entryX=0.5;entryY=1;entryDx=0;entryDy=0;labelBackgroundColor=none;strokeColor=#457B9D;fontColor=default;" edge="1" parent="1" source="zYAFex58_-Hg5FmRaFq3-220" target="zYAFex58_-Hg5FmRaFq3-94">
          <mxGeometry relative="1" as="geometry">
            <mxPoint x="-2010" y="1342.4" as="targetPoint" />
            <mxPoint x="887.6" y="1060.02" as="sourcePoint" />
            <Array as="points">
              <mxPoint x="970" y="1060" />
              <mxPoint x="-2009" y="1060" />
            </Array>
          </mxGeometry>
        </mxCell>
        <mxCell id="zYAFex58_-Hg5FmRaFq3-220" value="Drives" style="shape=rhombus;perimeter=rhombusPerimeter;whiteSpace=wrap;html=1;align=center;labelBackgroundColor=none;fillColor=#A8DADC;strokeColor=#457B9D;fontColor=#1D3557;" vertex="1" parent="1">
          <mxGeometry x="910" y="610" width="120" height="60" as="geometry" />
        </mxCell>
        <mxCell id="zYAFex58_-Hg5FmRaFq3-222" value="" style="endArrow=none;html=1;rounded=0;entryX=0.25;entryY=1;entryDx=0;entryDy=0;exitX=0.5;exitY=0;exitDx=0;exitDy=0;labelBackgroundColor=none;strokeColor=#457B9D;fontColor=default;" edge="1" parent="1" source="zYAFex58_-Hg5FmRaFq3-220">
          <mxGeometry relative="1" as="geometry">
            <mxPoint x="750" y="570" as="sourcePoint" />
            <mxPoint x="1020" y="580" as="targetPoint" />
          </mxGeometry>
        </mxCell>
        <mxCell id="zYAFex58_-Hg5FmRaFq3-224" value="Belongs " style="shape=rhombus;perimeter=rhombusPerimeter;whiteSpace=wrap;html=1;align=center;labelBackgroundColor=none;fillColor=#A8DADC;strokeColor=#457B9D;fontColor=#1D3557;" vertex="1" parent="1">
          <mxGeometry x="-1880" y="720" width="120" height="60" as="geometry" />
        </mxCell>
        <mxCell id="zYAFex58_-Hg5FmRaFq3-225" style="edgeStyle=orthogonalEdgeStyle;rounded=0;orthogonalLoop=1;jettySize=auto;html=1;exitX=0;exitY=0.5;exitDx=0;exitDy=0;entryX=0.988;entryY=0.132;entryDx=0;entryDy=0;entryPerimeter=0;labelBackgroundColor=none;strokeColor=#457B9D;fontColor=default;" edge="1" parent="1" source="zYAFex58_-Hg5FmRaFq3-224" target="zYAFex58_-Hg5FmRaFq3-94">
          <mxGeometry relative="1" as="geometry" />
        </mxCell>
        <mxCell id="zYAFex58_-Hg5FmRaFq3-226" value="" style="endArrow=none;html=1;rounded=0;exitX=1;exitY=0.5;exitDx=0;exitDy=0;entryX=0;entryY=1;entryDx=0;entryDy=0;labelBackgroundColor=none;strokeColor=#457B9D;fontColor=default;" edge="1" parent="1" source="zYAFex58_-Hg5FmRaFq3-224" target="zYAFex58_-Hg5FmRaFq3-86">
          <mxGeometry relative="1" as="geometry">
            <mxPoint x="-1740" y="670" as="sourcePoint" />
            <mxPoint x="-1580" y="670" as="targetPoint" />
          </mxGeometry>
        </mxCell>
        <mxCell id="zYAFex58_-Hg5FmRaFq3-228" style="edgeStyle=orthogonalEdgeStyle;rounded=0;orthogonalLoop=1;jettySize=auto;html=1;exitX=0.5;exitY=0;exitDx=0;exitDy=0;entryX=0.5;entryY=1;entryDx=0;entryDy=0;labelBackgroundColor=none;strokeColor=#457B9D;fontColor=default;" edge="1" parent="1" source="zYAFex58_-Hg5FmRaFq3-227" target="zYAFex58_-Hg5FmRaFq3-96">
          <mxGeometry relative="1" as="geometry" />
        </mxCell>
        <mxCell id="zYAFex58_-Hg5FmRaFq3-227" value="Has " style="shape=rhombus;perimeter=rhombusPerimeter;whiteSpace=wrap;html=1;align=center;labelBackgroundColor=none;fillColor=#A8DADC;strokeColor=#457B9D;fontColor=#1D3557;" vertex="1" parent="1">
          <mxGeometry x="-1450" y="470" width="120" height="60" as="geometry" />
        </mxCell>
        <mxCell id="zYAFex58_-Hg5FmRaFq3-229" value="" style="endArrow=none;html=1;rounded=0;exitX=0.5;exitY=1;exitDx=0;exitDy=0;entryX=0.75;entryY=1;entryDx=0;entryDy=0;labelBackgroundColor=none;strokeColor=#457B9D;fontColor=default;" edge="1" parent="1" source="zYAFex58_-Hg5FmRaFq3-227" target="zYAFex58_-Hg5FmRaFq3-94">
          <mxGeometry relative="1" as="geometry">
            <mxPoint x="-1370" y="470" as="sourcePoint" />
            <mxPoint x="-1210" y="470" as="targetPoint" />
            <Array as="points">
              <mxPoint x="-1380" y="1050" />
              <mxPoint x="-1970" y="1050" />
            </Array>
          </mxGeometry>
        </mxCell>
        <mxCell id="zYAFex58_-Hg5FmRaFq3-230" value="Has" style="shape=rhombus;perimeter=rhombusPerimeter;whiteSpace=wrap;html=1;align=center;labelBackgroundColor=none;fillColor=#A8DADC;strokeColor=#457B9D;fontColor=#1D3557;" vertex="1" parent="1">
          <mxGeometry x="-2260" y="770" width="120" height="60" as="geometry" />
        </mxCell>
        <mxCell id="zYAFex58_-Hg5FmRaFq3-232" value="" style="endArrow=none;html=1;rounded=0;exitX=1;exitY=0.5;exitDx=0;exitDy=0;entryX=0.017;entryY=0.322;entryDx=0;entryDy=0;entryPerimeter=0;labelBackgroundColor=none;strokeColor=#457B9D;fontColor=default;" edge="1" parent="1" source="zYAFex58_-Hg5FmRaFq3-230" target="zYAFex58_-Hg5FmRaFq3-94">
          <mxGeometry relative="1" as="geometry">
            <mxPoint x="-1960" y="730" as="sourcePoint" />
            <mxPoint x="-1800" y="730" as="targetPoint" />
          </mxGeometry>
        </mxCell>
        <mxCell id="zYAFex58_-Hg5FmRaFq3-233" style="edgeStyle=orthogonalEdgeStyle;rounded=0;orthogonalLoop=1;jettySize=auto;html=1;exitX=0;exitY=0.5;exitDx=0;exitDy=0;entryX=0.982;entryY=0.34;entryDx=0;entryDy=0;entryPerimeter=0;labelBackgroundColor=none;strokeColor=#457B9D;fontColor=default;" edge="1" parent="1" source="zYAFex58_-Hg5FmRaFq3-230" target="zYAFex58_-Hg5FmRaFq3-98">
          <mxGeometry relative="1" as="geometry" />
        </mxCell>
        <mxCell id="zYAFex58_-Hg5FmRaFq3-234" value="Occurs " style="shape=rhombus;perimeter=rhombusPerimeter;whiteSpace=wrap;html=1;align=center;labelBackgroundColor=none;fillColor=#A8DADC;strokeColor=#457B9D;fontColor=#1D3557;" vertex="1" parent="1">
          <mxGeometry x="-2260" y="920" width="120" height="60" as="geometry" />
        </mxCell>
        <mxCell id="zYAFex58_-Hg5FmRaFq3-236" style="edgeStyle=orthogonalEdgeStyle;rounded=0;orthogonalLoop=1;jettySize=auto;html=1;exitX=0;exitY=0.5;exitDx=0;exitDy=0;entryX=0.57;entryY=1.027;entryDx=0;entryDy=0;entryPerimeter=0;labelBackgroundColor=none;strokeColor=#457B9D;fontColor=default;" edge="1" parent="1" source="zYAFex58_-Hg5FmRaFq3-234" target="zYAFex58_-Hg5FmRaFq3-98">
          <mxGeometry relative="1" as="geometry" />
        </mxCell>
        <mxCell id="zYAFex58_-Hg5FmRaFq3-237" value="" style="endArrow=none;html=1;rounded=0;exitX=1;exitY=0.5;exitDx=0;exitDy=0;entryX=0;entryY=0.5;entryDx=0;entryDy=0;labelBackgroundColor=none;strokeColor=#457B9D;fontColor=default;" edge="1" parent="1" source="zYAFex58_-Hg5FmRaFq3-234" target="zYAFex58_-Hg5FmRaFq3-84">
          <mxGeometry relative="1" as="geometry">
            <mxPoint x="-1960" y="930" as="sourcePoint" />
            <mxPoint x="-1800" y="930" as="targetPoint" />
          </mxGeometry>
        </mxCell>
        <mxCell id="zYAFex58_-Hg5FmRaFq3-238" value="Assigned " style="shape=rhombus;perimeter=rhombusPerimeter;whiteSpace=wrap;html=1;align=center;labelBackgroundColor=none;fillColor=#A8DADC;strokeColor=#457B9D;fontColor=#1D3557;" vertex="1" parent="1">
          <mxGeometry x="-1230" y="530" width="120" height="60" as="geometry" />
        </mxCell>
        <mxCell id="zYAFex58_-Hg5FmRaFq3-239" value="" style="endArrow=none;html=1;rounded=0;exitX=0.5;exitY=1;exitDx=0;exitDy=0;entryX=0.5;entryY=0;entryDx=0;entryDy=0;labelBackgroundColor=none;strokeColor=#457B9D;fontColor=default;" edge="1" parent="1" source="zYAFex58_-Hg5FmRaFq3-100" target="zYAFex58_-Hg5FmRaFq3-238">
          <mxGeometry relative="1" as="geometry">
            <mxPoint x="-1000" y="530" as="sourcePoint" />
            <mxPoint x="-840" y="530" as="targetPoint" />
          </mxGeometry>
        </mxCell>
        <mxCell id="zYAFex58_-Hg5FmRaFq3-240" style="edgeStyle=orthogonalEdgeStyle;rounded=0;orthogonalLoop=1;jettySize=auto;html=1;exitX=0.5;exitY=1;exitDx=0;exitDy=0;entryX=0.376;entryY=0.012;entryDx=0;entryDy=0;entryPerimeter=0;labelBackgroundColor=none;strokeColor=#457B9D;fontColor=default;" edge="1" parent="1" source="zYAFex58_-Hg5FmRaFq3-238" target="zYAFex58_-Hg5FmRaFq3-101">
          <mxGeometry relative="1" as="geometry" />
        </mxCell>
        <mxCell id="zYAFex58_-Hg5FmRaFq3-241" value="Assignment &lt;em data-end=&quot;6219&quot; data-start=&quot;6207&quot;&gt;To&lt;/em&gt;" style="shape=rhombus;perimeter=rhombusPerimeter;whiteSpace=wrap;html=1;align=center;labelBackgroundColor=none;fillColor=#A8DADC;strokeColor=#457B9D;fontColor=#1D3557;" vertex="1" parent="1">
          <mxGeometry x="-1920" y="1080" width="120" height="60" as="geometry" />
        </mxCell>
        <mxCell id="zYAFex58_-Hg5FmRaFq3-242" value="" style="endArrow=none;html=1;rounded=0;entryX=0.947;entryY=0.992;entryDx=0;entryDy=0;entryPerimeter=0;exitX=0.5;exitY=0;exitDx=0;exitDy=0;labelBackgroundColor=none;strokeColor=#457B9D;fontColor=default;" edge="1" parent="1" source="zYAFex58_-Hg5FmRaFq3-241" target="zYAFex58_-Hg5FmRaFq3-90">
          <mxGeometry relative="1" as="geometry">
            <mxPoint x="-2310" y="830" as="sourcePoint" />
            <mxPoint x="-2150" y="830" as="targetPoint" />
          </mxGeometry>
        </mxCell>
        <mxCell id="zYAFex58_-Hg5FmRaFq3-243" style="edgeStyle=orthogonalEdgeStyle;rounded=0;orthogonalLoop=1;jettySize=auto;html=1;exitX=1;exitY=0.5;exitDx=0;exitDy=0;entryX=0.01;entryY=0.115;entryDx=0;entryDy=0;entryPerimeter=0;labelBackgroundColor=none;strokeColor=#457B9D;fontColor=default;" edge="1" parent="1" source="zYAFex58_-Hg5FmRaFq3-241" target="zYAFex58_-Hg5FmRaFq3-101">
          <mxGeometry relative="1" as="geometry" />
        </mxCell>
        <mxCell id="zYAFex58_-Hg5FmRaFq3-244" value="Assignment&amp;nbsp;&lt;em data-end=&quot;6219&quot; data-start=&quot;6207&quot;&gt;To&lt;/em&gt;" style="shape=rhombus;perimeter=rhombusPerimeter;whiteSpace=wrap;html=1;align=center;labelBackgroundColor=none;fillColor=#A8DADC;strokeColor=#457B9D;fontColor=#1D3557;" vertex="1" parent="1">
          <mxGeometry x="-1650" y="1150" width="120" height="60" as="geometry" />
        </mxCell>
        <mxCell id="zYAFex58_-Hg5FmRaFq3-245" style="edgeStyle=orthogonalEdgeStyle;rounded=0;orthogonalLoop=1;jettySize=auto;html=1;exitX=1;exitY=0.5;exitDx=0;exitDy=0;entryX=0.017;entryY=0.333;entryDx=0;entryDy=0;entryPerimeter=0;labelBackgroundColor=none;strokeColor=#457B9D;fontColor=default;" edge="1" parent="1" source="zYAFex58_-Hg5FmRaFq3-244" target="zYAFex58_-Hg5FmRaFq3-102">
          <mxGeometry relative="1" as="geometry" />
        </mxCell>
        <mxCell id="zYAFex58_-Hg5FmRaFq3-246" value="" style="endArrow=none;html=1;rounded=0;exitX=0.5;exitY=1;exitDx=0;exitDy=0;entryX=0.5;entryY=0;entryDx=0;entryDy=0;labelBackgroundColor=none;strokeColor=#457B9D;fontColor=default;" edge="1" parent="1" source="zYAFex58_-Hg5FmRaFq3-84" target="zYAFex58_-Hg5FmRaFq3-244">
          <mxGeometry relative="1" as="geometry">
            <mxPoint x="-1560" y="1030" as="sourcePoint" />
            <mxPoint x="-1400" y="1030" as="targetPoint" />
          </mxGeometry>
        </mxCell>
        <mxCell id="zYAFex58_-Hg5FmRaFq3-248" style="edgeStyle=orthogonalEdgeStyle;rounded=0;orthogonalLoop=1;jettySize=auto;html=1;exitX=1;exitY=0.5;exitDx=0;exitDy=0;labelBackgroundColor=none;strokeColor=#457B9D;fontColor=default;" edge="1" parent="1" source="zYAFex58_-Hg5FmRaFq3-247" target="zYAFex58_-Hg5FmRaFq3-104">
          <mxGeometry relative="1" as="geometry" />
        </mxCell>
        <mxCell id="zYAFex58_-Hg5FmRaFq3-247" value="&lt;em data-end=&quot;6572&quot; data-start=&quot;6551&quot;&gt;Processed by&lt;/em&gt;" style="shape=rhombus;perimeter=rhombusPerimeter;whiteSpace=wrap;html=1;align=center;labelBackgroundColor=none;fillColor=#A8DADC;strokeColor=#457B9D;fontColor=#1D3557;" vertex="1" parent="1">
          <mxGeometry x="-1020" y="500" width="120" height="60" as="geometry" />
        </mxCell>
        <mxCell id="zYAFex58_-Hg5FmRaFq3-251" value="" style="endArrow=none;html=1;rounded=0;entryX=0;entryY=0.5;entryDx=0;entryDy=0;exitX=0.75;exitY=1;exitDx=0;exitDy=0;labelBackgroundColor=none;strokeColor=#457B9D;fontColor=default;" edge="1" parent="1" source="zYAFex58_-Hg5FmRaFq3-100" target="zYAFex58_-Hg5FmRaFq3-247">
          <mxGeometry relative="1" as="geometry">
            <mxPoint x="-1040" y="530" as="sourcePoint" />
            <mxPoint x="-880" y="530" as="targetPoint" />
            <Array as="points">
              <mxPoint x="-1119" y="530" />
            </Array>
          </mxGeometry>
        </mxCell>
        <mxCell id="zYAFex58_-Hg5FmRaFq3-252" value="Exist At" style="shape=rhombus;perimeter=rhombusPerimeter;whiteSpace=wrap;html=1;align=center;labelBackgroundColor=none;fillColor=#A8DADC;strokeColor=#457B9D;fontColor=#1D3557;" vertex="1" parent="1">
          <mxGeometry x="-1020" y="600" width="120" height="60" as="geometry" />
        </mxCell>
        <mxCell id="zYAFex58_-Hg5FmRaFq3-253" style="edgeStyle=orthogonalEdgeStyle;rounded=0;orthogonalLoop=1;jettySize=auto;html=1;exitX=1;exitY=0.5;exitDx=0;exitDy=0;entryX=0.66;entryY=0.975;entryDx=0;entryDy=0;entryPerimeter=0;labelBackgroundColor=none;strokeColor=#457B9D;fontColor=default;" edge="1" parent="1" source="zYAFex58_-Hg5FmRaFq3-252" target="zYAFex58_-Hg5FmRaFq3-104">
          <mxGeometry relative="1" as="geometry" />
        </mxCell>
        <mxCell id="zYAFex58_-Hg5FmRaFq3-254" value="" style="endArrow=none;html=1;rounded=0;entryX=0.5;entryY=1;entryDx=0;entryDy=0;exitX=1.012;exitY=0.34;exitDx=0;exitDy=0;exitPerimeter=0;labelBackgroundColor=none;strokeColor=#457B9D;fontColor=default;" edge="1" parent="1" source="zYAFex58_-Hg5FmRaFq3-84" target="zYAFex58_-Hg5FmRaFq3-252">
          <mxGeometry relative="1" as="geometry">
            <mxPoint x="-1190" y="630" as="sourcePoint" />
            <mxPoint x="-1030" y="630" as="targetPoint" />
            <Array as="points">
              <mxPoint x="-960" y="930" />
            </Array>
          </mxGeometry>
        </mxCell>
        <mxCell id="zYAFex58_-Hg5FmRaFq3-256" style="edgeStyle=orthogonalEdgeStyle;rounded=0;orthogonalLoop=1;jettySize=auto;html=1;exitX=1;exitY=0.5;exitDx=0;exitDy=0;entryX=0.75;entryY=1;entryDx=0;entryDy=0;labelBackgroundColor=none;strokeColor=#457B9D;fontColor=default;" edge="1" parent="1" source="zYAFex58_-Hg5FmRaFq3-255" target="zYAFex58_-Hg5FmRaFq3-104">
          <mxGeometry relative="1" as="geometry" />
        </mxCell>
        <mxCell id="zYAFex58_-Hg5FmRaFq3-255" value="Exist On" style="shape=rhombus;perimeter=rhombusPerimeter;whiteSpace=wrap;html=1;align=center;labelBackgroundColor=none;fillColor=#A8DADC;strokeColor=#457B9D;fontColor=#1D3557;" vertex="1" parent="1">
          <mxGeometry x="-920" y="700" width="120" height="60" as="geometry" />
        </mxCell>
        <mxCell id="zYAFex58_-Hg5FmRaFq3-257" value="" style="endArrow=none;html=1;rounded=0;entryX=0;entryY=0.5;entryDx=0;entryDy=0;exitX=0.962;exitY=0.952;exitDx=0;exitDy=0;exitPerimeter=0;labelBackgroundColor=none;strokeColor=#457B9D;fontColor=default;" edge="1" parent="1" source="zYAFex58_-Hg5FmRaFq3-86" target="zYAFex58_-Hg5FmRaFq3-255">
          <mxGeometry relative="1" as="geometry">
            <mxPoint x="-1190" y="630" as="sourcePoint" />
            <mxPoint x="-1030" y="630" as="targetPoint" />
            <Array as="points">
              <mxPoint x="-1500" y="730" />
            </Array>
          </mxGeometry>
        </mxCell>
        <mxCell id="zYAFex58_-Hg5FmRaFq3-259" value="Using" style="shape=rhombus;perimeter=rhombusPerimeter;whiteSpace=wrap;html=1;align=center;labelBackgroundColor=none;fillColor=#A8DADC;strokeColor=#457B9D;fontColor=#1D3557;" vertex="1" parent="1">
          <mxGeometry x="-750" y="780" width="120" height="60" as="geometry" />
        </mxCell>
        <mxCell id="zYAFex58_-Hg5FmRaFq3-261" style="edgeStyle=orthogonalEdgeStyle;rounded=0;orthogonalLoop=1;jettySize=auto;html=1;exitX=0;exitY=0.5;exitDx=0;exitDy=0;entryX=1;entryY=0.5;entryDx=0;entryDy=0;labelBackgroundColor=none;strokeColor=#457B9D;fontColor=default;" edge="1" parent="1" source="zYAFex58_-Hg5FmRaFq3-260" target="zYAFex58_-Hg5FmRaFq3-104">
          <mxGeometry relative="1" as="geometry" />
        </mxCell>
        <mxCell id="zYAFex58_-Hg5FmRaFq3-260" value="Using" style="shape=rhombus;perimeter=rhombusPerimeter;whiteSpace=wrap;html=1;align=center;labelBackgroundColor=none;fillColor=#A8DADC;strokeColor=#457B9D;fontColor=#1D3557;" vertex="1" parent="1">
          <mxGeometry x="-582.5" y="530" width="120" height="60" as="geometry" />
        </mxCell>
        <mxCell id="zYAFex58_-Hg5FmRaFq3-262" style="edgeStyle=orthogonalEdgeStyle;rounded=0;orthogonalLoop=1;jettySize=auto;html=1;exitX=0.5;exitY=0;exitDx=0;exitDy=0;entryX=0.899;entryY=1.037;entryDx=0;entryDy=0;entryPerimeter=0;labelBackgroundColor=none;strokeColor=#457B9D;fontColor=default;" edge="1" parent="1" source="zYAFex58_-Hg5FmRaFq3-259" target="zYAFex58_-Hg5FmRaFq3-104">
          <mxGeometry relative="1" as="geometry" />
        </mxCell>
        <mxCell id="zYAFex58_-Hg5FmRaFq3-263" value="" style="endArrow=none;html=1;rounded=0;entryX=0.5;entryY=0;entryDx=0;entryDy=0;exitX=0.5;exitY=1;exitDx=0;exitDy=0;labelBackgroundColor=none;strokeColor=#457B9D;fontColor=default;" edge="1" parent="1" source="zYAFex58_-Hg5FmRaFq3-106" target="zYAFex58_-Hg5FmRaFq3-260">
          <mxGeometry relative="1" as="geometry">
            <mxPoint x="-760" y="430" as="sourcePoint" />
            <mxPoint x="-600" y="430" as="targetPoint" />
          </mxGeometry>
        </mxCell>
        <mxCell id="zYAFex58_-Hg5FmRaFq3-265" value="" style="endArrow=none;html=1;rounded=0;exitX=1;exitY=0.5;exitDx=0;exitDy=0;entryX=0;entryY=0.25;entryDx=0;entryDy=0;labelBackgroundColor=none;strokeColor=#457B9D;fontColor=default;" edge="1" parent="1" source="zYAFex58_-Hg5FmRaFq3-259" target="zYAFex58_-Hg5FmRaFq3-109">
          <mxGeometry relative="1" as="geometry">
            <mxPoint x="-760" y="730" as="sourcePoint" />
            <mxPoint x="-600" y="730" as="targetPoint" />
          </mxGeometry>
        </mxCell>
        <mxCell id="zYAFex58_-Hg5FmRaFq3-267" style="edgeStyle=orthogonalEdgeStyle;rounded=0;orthogonalLoop=1;jettySize=auto;html=1;exitX=0.5;exitY=0;exitDx=0;exitDy=0;entryX=0.5;entryY=1;entryDx=0;entryDy=0;labelBackgroundColor=none;strokeColor=#457B9D;fontColor=default;" edge="1" parent="1" source="zYAFex58_-Hg5FmRaFq3-266" target="zYAFex58_-Hg5FmRaFq3-108">
          <mxGeometry relative="1" as="geometry" />
        </mxCell>
        <mxCell id="zYAFex58_-Hg5FmRaFq3-266" value="Has " style="shape=rhombus;perimeter=rhombusPerimeter;whiteSpace=wrap;html=1;align=center;labelBackgroundColor=none;fillColor=#A8DADC;strokeColor=#457B9D;fontColor=#1D3557;" vertex="1" parent="1">
          <mxGeometry x="-410" y="505" width="120" height="60" as="geometry" />
        </mxCell>
        <mxCell id="zYAFex58_-Hg5FmRaFq3-270" value="" style="endArrow=none;html=1;rounded=0;entryX=0;entryY=0.5;entryDx=0;entryDy=0;exitX=0.75;exitY=1;exitDx=0;exitDy=0;labelBackgroundColor=none;strokeColor=#457B9D;fontColor=default;" edge="1" parent="1" source="zYAFex58_-Hg5FmRaFq3-106" target="zYAFex58_-Hg5FmRaFq3-266">
          <mxGeometry relative="1" as="geometry">
            <mxPoint x="-760" y="530" as="sourcePoint" />
            <mxPoint x="-600" y="530" as="targetPoint" />
            <Array as="points">
              <mxPoint x="-479" y="535" />
            </Array>
          </mxGeometry>
        </mxCell>
        <mxCell id="zYAFex58_-Hg5FmRaFq3-271" value="Occurred  " style="shape=rhombus;perimeter=rhombusPerimeter;whiteSpace=wrap;html=1;align=center;labelBackgroundColor=none;fillColor=#A8DADC;strokeColor=#457B9D;fontColor=#1D3557;" vertex="1" parent="1">
          <mxGeometry x="-270" y="505" width="120" height="60" as="geometry" />
        </mxCell>
        <mxCell id="zYAFex58_-Hg5FmRaFq3-272" style="edgeStyle=orthogonalEdgeStyle;rounded=0;orthogonalLoop=1;jettySize=auto;html=1;exitX=0.5;exitY=0;exitDx=0;exitDy=0;entryX=0.674;entryY=0.976;entryDx=0;entryDy=0;entryPerimeter=0;labelBackgroundColor=none;strokeColor=#457B9D;fontColor=default;" edge="1" parent="1" source="zYAFex58_-Hg5FmRaFq3-271" target="zYAFex58_-Hg5FmRaFq3-108">
          <mxGeometry relative="1" as="geometry" />
        </mxCell>
        <mxCell id="zYAFex58_-Hg5FmRaFq3-273" value="" style="endArrow=none;html=1;rounded=0;entryX=0.5;entryY=1;entryDx=0;entryDy=0;exitX=1;exitY=0.75;exitDx=0;exitDy=0;labelBackgroundColor=none;strokeColor=#457B9D;fontColor=default;" edge="1" parent="1" source="zYAFex58_-Hg5FmRaFq3-84" target="zYAFex58_-Hg5FmRaFq3-271">
          <mxGeometry relative="1" as="geometry">
            <mxPoint x="-450" y="530" as="sourcePoint" />
            <mxPoint x="-290" y="530" as="targetPoint" />
            <Array as="points">
              <mxPoint x="-210" y="980" />
            </Array>
          </mxGeometry>
        </mxCell>
        <mxCell id="zYAFex58_-Hg5FmRaFq3-275" style="edgeStyle=orthogonalEdgeStyle;rounded=0;orthogonalLoop=1;jettySize=auto;html=1;exitX=0.5;exitY=0;exitDx=0;exitDy=0;entryX=0.25;entryY=1;entryDx=0;entryDy=0;labelBackgroundColor=none;strokeColor=#457B9D;fontColor=default;" edge="1" parent="1" source="zYAFex58_-Hg5FmRaFq3-274" target="zYAFex58_-Hg5FmRaFq3-112">
          <mxGeometry relative="1" as="geometry" />
        </mxCell>
        <mxCell id="zYAFex58_-Hg5FmRaFq3-274" value="Has " style="shape=rhombus;perimeter=rhombusPerimeter;whiteSpace=wrap;html=1;align=center;labelBackgroundColor=none;fillColor=#A8DADC;strokeColor=#457B9D;fontColor=#1D3557;" vertex="1" parent="1">
          <mxGeometry x="-150" y="580" width="120" height="55" as="geometry" />
        </mxCell>
        <mxCell id="zYAFex58_-Hg5FmRaFq3-276" value="" style="endArrow=none;html=1;rounded=0;entryX=0.5;entryY=1;entryDx=0;entryDy=0;exitX=0.5;exitY=0;exitDx=0;exitDy=0;labelBackgroundColor=none;strokeColor=#457B9D;fontColor=default;" edge="1" parent="1" source="zYAFex58_-Hg5FmRaFq3-109" target="zYAFex58_-Hg5FmRaFq3-274">
          <mxGeometry relative="1" as="geometry">
            <mxPoint x="-570" y="780" as="sourcePoint" />
            <mxPoint x="-410" y="780" as="targetPoint" />
            <Array as="points">
              <mxPoint x="-472" y="640" />
            </Array>
          </mxGeometry>
        </mxCell>
        <mxCell id="zYAFex58_-Hg5FmRaFq3-279" style="edgeStyle=orthogonalEdgeStyle;rounded=0;orthogonalLoop=1;jettySize=auto;html=1;exitX=0.5;exitY=0;exitDx=0;exitDy=0;entryX=0.75;entryY=1;entryDx=0;entryDy=0;labelBackgroundColor=none;strokeColor=#457B9D;fontColor=default;" edge="1" parent="1" source="zYAFex58_-Hg5FmRaFq3-277" target="zYAFex58_-Hg5FmRaFq3-112">
          <mxGeometry relative="1" as="geometry" />
        </mxCell>
        <mxCell id="zYAFex58_-Hg5FmRaFq3-277" value="Occurred  " style="shape=rhombus;perimeter=rhombusPerimeter;whiteSpace=wrap;html=1;align=center;labelBackgroundColor=none;fillColor=#A8DADC;strokeColor=#457B9D;fontColor=#1D3557;" vertex="1" parent="1">
          <mxGeometry x="-70" y="820" width="120" height="60" as="geometry" />
        </mxCell>
        <mxCell id="zYAFex58_-Hg5FmRaFq3-280" value="" style="endArrow=none;html=1;rounded=0;exitX=0.5;exitY=1;exitDx=0;exitDy=0;entryX=0.99;entryY=0.911;entryDx=0;entryDy=0;entryPerimeter=0;labelBackgroundColor=none;strokeColor=#457B9D;fontColor=default;" edge="1" parent="1" source="zYAFex58_-Hg5FmRaFq3-277" target="zYAFex58_-Hg5FmRaFq3-84">
          <mxGeometry relative="1" as="geometry">
            <mxPoint x="-70" y="980" as="sourcePoint" />
            <mxPoint x="90" y="980" as="targetPoint" />
            <Array as="points">
              <mxPoint x="-10" y="1000" />
            </Array>
          </mxGeometry>
        </mxCell>
        <mxCell id="zYAFex58_-Hg5FmRaFq3-284" style="edgeStyle=orthogonalEdgeStyle;rounded=0;orthogonalLoop=1;jettySize=auto;html=1;exitX=0.5;exitY=0;exitDx=0;exitDy=0;entryX=0.5;entryY=1;entryDx=0;entryDy=0;labelBackgroundColor=none;strokeColor=#457B9D;fontColor=default;" edge="1" parent="1" source="zYAFex58_-Hg5FmRaFq3-283" target="zYAFex58_-Hg5FmRaFq3-119">
          <mxGeometry relative="1" as="geometry" />
        </mxCell>
        <mxCell id="zYAFex58_-Hg5FmRaFq3-283" value="Has " style="shape=rhombus;perimeter=rhombusPerimeter;whiteSpace=wrap;html=1;align=center;labelBackgroundColor=none;fillColor=#A8DADC;strokeColor=#457B9D;fontColor=#1D3557;" vertex="1" parent="1">
          <mxGeometry x="345" y="860" width="120" height="60" as="geometry" />
        </mxCell>
        <mxCell id="zYAFex58_-Hg5FmRaFq3-286" value="" style="endArrow=none;html=1;rounded=0;entryX=0.5;entryY=1;entryDx=0;entryDy=0;exitX=0;exitY=0.5;exitDx=0;exitDy=0;labelBackgroundColor=none;strokeColor=#457B9D;fontColor=default;" edge="1" parent="1" source="zYAFex58_-Hg5FmRaFq3-90" target="zYAFex58_-Hg5FmRaFq3-283">
          <mxGeometry relative="1" as="geometry">
            <mxPoint x="-710" y="1060" as="sourcePoint" />
            <mxPoint x="-550" y="1060" as="targetPoint" />
            <Array as="points">
              <mxPoint x="-2120" y="480" />
              <mxPoint x="-2120" y="1320" />
              <mxPoint x="400" y="1310" />
            </Array>
          </mxGeometry>
        </mxCell>
        <mxCell id="zYAFex58_-Hg5FmRaFq3-288" style="edgeStyle=orthogonalEdgeStyle;rounded=0;orthogonalLoop=1;jettySize=auto;html=1;exitX=0;exitY=0.5;exitDx=0;exitDy=0;entryX=0.75;entryY=1;entryDx=0;entryDy=0;labelBackgroundColor=none;strokeColor=#457B9D;fontColor=default;" edge="1" parent="1" source="zYAFex58_-Hg5FmRaFq3-287" target="zYAFex58_-Hg5FmRaFq3-119">
          <mxGeometry relative="1" as="geometry" />
        </mxCell>
        <mxCell id="zYAFex58_-Hg5FmRaFq3-287" value="Performs " style="shape=rhombus;perimeter=rhombusPerimeter;whiteSpace=wrap;html=1;align=center;labelBackgroundColor=none;fillColor=#A8DADC;strokeColor=#457B9D;fontColor=#1D3557;" vertex="1" parent="1">
          <mxGeometry x="270" y="550" width="120" height="60" as="geometry" />
        </mxCell>
        <mxCell id="zYAFex58_-Hg5FmRaFq3-289" value="" style="endArrow=none;html=1;rounded=0;entryX=1;entryY=0.5;entryDx=0;entryDy=0;labelBackgroundColor=none;strokeColor=#457B9D;fontColor=default;" edge="1" parent="1" target="zYAFex58_-Hg5FmRaFq3-287">
          <mxGeometry relative="1" as="geometry">
            <mxPoint x="950" y="440" as="sourcePoint" />
            <mxPoint x="310" y="560" as="targetPoint" />
            <Array as="points">
              <mxPoint x="390" y="440" />
            </Array>
          </mxGeometry>
        </mxCell>
        <mxCell id="zYAFex58_-Hg5FmRaFq3-293" style="edgeStyle=orthogonalEdgeStyle;rounded=0;orthogonalLoop=1;jettySize=auto;html=1;exitX=0.5;exitY=1;exitDx=0;exitDy=0;entryX=0.25;entryY=0;entryDx=0;entryDy=0;labelBackgroundColor=none;strokeColor=#457B9D;fontColor=default;" edge="1" parent="1" source="zYAFex58_-Hg5FmRaFq3-292" target="zYAFex58_-Hg5FmRaFq3-120">
          <mxGeometry relative="1" as="geometry" />
        </mxCell>
        <mxCell id="zYAFex58_-Hg5FmRaFq3-292" value="Includes " style="shape=rhombus;perimeter=rhombusPerimeter;whiteSpace=wrap;html=1;align=center;labelBackgroundColor=none;fillColor=#A8DADC;strokeColor=#457B9D;fontColor=#1D3557;" vertex="1" parent="1">
          <mxGeometry x="100" y="740" width="120" height="60" as="geometry" />
        </mxCell>
        <mxCell id="zYAFex58_-Hg5FmRaFq3-294" value="" style="endArrow=none;html=1;rounded=0;exitX=0.5;exitY=0;exitDx=0;exitDy=0;entryX=0.25;entryY=1;entryDx=0;entryDy=0;labelBackgroundColor=none;strokeColor=#457B9D;fontColor=default;" edge="1" parent="1" source="zYAFex58_-Hg5FmRaFq3-292" target="zYAFex58_-Hg5FmRaFq3-119">
          <mxGeometry relative="1" as="geometry">
            <mxPoint x="150" y="810" as="sourcePoint" />
            <mxPoint x="310" y="810" as="targetPoint" />
          </mxGeometry>
        </mxCell>
        <mxCell id="zYAFex58_-Hg5FmRaFq3-297" style="edgeStyle=orthogonalEdgeStyle;rounded=0;orthogonalLoop=1;jettySize=auto;html=1;exitX=0.5;exitY=1;exitDx=0;exitDy=0;entryX=1;entryY=0.75;entryDx=0;entryDy=0;labelBackgroundColor=none;strokeColor=#457B9D;fontColor=default;" edge="1" parent="1" source="zYAFex58_-Hg5FmRaFq3-295" target="zYAFex58_-Hg5FmRaFq3-121">
          <mxGeometry relative="1" as="geometry" />
        </mxCell>
        <mxCell id="zYAFex58_-Hg5FmRaFq3-295" value="Used " style="shape=rhombus;perimeter=rhombusPerimeter;whiteSpace=wrap;html=1;align=center;labelBackgroundColor=none;fillColor=#A8DADC;strokeColor=#457B9D;fontColor=#1D3557;" vertex="1" parent="1">
          <mxGeometry x="513" y="590" width="120" height="60" as="geometry" />
        </mxCell>
        <mxCell id="zYAFex58_-Hg5FmRaFq3-298" value="" style="endArrow=none;html=1;rounded=0;entryX=0.5;entryY=0;entryDx=0;entryDy=0;exitX=1;exitY=0.25;exitDx=0;exitDy=0;labelBackgroundColor=none;strokeColor=#457B9D;fontColor=default;" edge="1" parent="1" source="zYAFex58_-Hg5FmRaFq3-114" target="zYAFex58_-Hg5FmRaFq3-295">
          <mxGeometry relative="1" as="geometry">
            <mxPoint x="170" y="560" as="sourcePoint" />
            <mxPoint x="330" y="560" as="targetPoint" />
            <Array as="points">
              <mxPoint x="580" y="370" />
            </Array>
          </mxGeometry>
        </mxCell>
        <mxCell id="zYAFex58_-Hg5FmRaFq3-300" style="edgeStyle=orthogonalEdgeStyle;rounded=0;orthogonalLoop=1;jettySize=auto;html=1;exitX=0.5;exitY=0;exitDx=0;exitDy=0;entryX=0.5;entryY=1;entryDx=0;entryDy=0;labelBackgroundColor=none;strokeColor=#457B9D;fontColor=default;" edge="1" parent="1" source="zYAFex58_-Hg5FmRaFq3-299" target="zYAFex58_-Hg5FmRaFq3-121">
          <mxGeometry relative="1" as="geometry" />
        </mxCell>
        <mxCell id="zYAFex58_-Hg5FmRaFq3-299" value="Supplied by" style="shape=rhombus;perimeter=rhombusPerimeter;whiteSpace=wrap;html=1;align=center;labelBackgroundColor=none;fillColor=#A8DADC;strokeColor=#457B9D;fontColor=#1D3557;" vertex="1" parent="1">
          <mxGeometry x="140" y="1150" width="120" height="60" as="geometry" />
        </mxCell>
        <mxCell id="zYAFex58_-Hg5FmRaFq3-301" value="" style="endArrow=none;html=1;rounded=0;entryX=0.5;entryY=1;entryDx=0;entryDy=0;exitX=0;exitY=0.75;exitDx=0;exitDy=0;labelBackgroundColor=none;strokeColor=#457B9D;fontColor=default;" edge="1" parent="1" source="zYAFex58_-Hg5FmRaFq3-117" target="zYAFex58_-Hg5FmRaFq3-299">
          <mxGeometry relative="1" as="geometry">
            <mxPoint x="170" y="810" as="sourcePoint" />
            <mxPoint x="330" y="810" as="targetPoint" />
          </mxGeometry>
        </mxCell>
        <mxCell id="zYAFex58_-Hg5FmRaFq3-307" style="edgeStyle=orthogonalEdgeStyle;rounded=0;orthogonalLoop=1;jettySize=auto;html=1;exitX=1;exitY=0.5;exitDx=0;exitDy=0;entryX=0.25;entryY=1;entryDx=0;entryDy=0;labelBackgroundColor=none;strokeColor=#457B9D;fontColor=default;" edge="1" parent="1" source="zYAFex58_-Hg5FmRaFq3-302" target="zYAFex58_-Hg5FmRaFq3-123">
          <mxGeometry relative="1" as="geometry" />
        </mxCell>
        <mxCell id="zYAFex58_-Hg5FmRaFq3-302" value="Has" style="shape=rhombus;perimeter=rhombusPerimeter;whiteSpace=wrap;html=1;align=center;labelBackgroundColor=none;fillColor=#A8DADC;strokeColor=#457B9D;fontColor=#1D3557;" vertex="1" parent="1">
          <mxGeometry x="-2580" y="1350" width="120" height="60" as="geometry" />
        </mxCell>
        <mxCell id="zYAFex58_-Hg5FmRaFq3-303" value="" style="endArrow=none;html=1;rounded=0;exitX=-0.044;exitY=0.13;exitDx=0;exitDy=0;exitPerimeter=0;entryX=0.5;entryY=0;entryDx=0;entryDy=0;labelBackgroundColor=none;strokeColor=#457B9D;fontColor=default;" edge="1" parent="1" source="zYAFex58_-Hg5FmRaFq3-89" target="zYAFex58_-Hg5FmRaFq3-302">
          <mxGeometry relative="1" as="geometry">
            <mxPoint x="-1780" y="810" as="sourcePoint" />
            <mxPoint x="-1620" y="810" as="targetPoint" />
            <Array as="points">
              <mxPoint x="-2500" y="374" />
            </Array>
          </mxGeometry>
        </mxCell>
        <mxCell id="zYAFex58_-Hg5FmRaFq3-309" style="edgeStyle=orthogonalEdgeStyle;rounded=0;orthogonalLoop=1;jettySize=auto;html=1;exitX=0.5;exitY=0;exitDx=0;exitDy=0;entryX=0.5;entryY=1;entryDx=0;entryDy=0;labelBackgroundColor=none;strokeColor=#457B9D;fontColor=default;" edge="1" parent="1" source="zYAFex58_-Hg5FmRaFq3-308" target="zYAFex58_-Hg5FmRaFq3-128">
          <mxGeometry relative="1" as="geometry" />
        </mxCell>
        <mxCell id="zYAFex58_-Hg5FmRaFq3-308" value="Has " style="shape=rhombus;perimeter=rhombusPerimeter;whiteSpace=wrap;html=1;align=center;labelBackgroundColor=none;fillColor=#A8DADC;strokeColor=#457B9D;fontColor=#1D3557;" vertex="1" parent="1">
          <mxGeometry x="710" y="470" width="120" height="60" as="geometry" />
        </mxCell>
        <mxCell id="zYAFex58_-Hg5FmRaFq3-310" value="" style="endArrow=none;html=1;rounded=0;entryX=1;entryY=0.5;entryDx=0;entryDy=0;exitX=0.019;exitY=0.691;exitDx=0;exitDy=0;exitPerimeter=0;labelBackgroundColor=none;strokeColor=#457B9D;fontColor=default;" edge="1" parent="1" source="zYAFex58_-Hg5FmRaFq3-290" target="zYAFex58_-Hg5FmRaFq3-308">
          <mxGeometry relative="1" as="geometry">
            <mxPoint x="180" y="620" as="sourcePoint" />
            <mxPoint x="340" y="620" as="targetPoint" />
          </mxGeometry>
        </mxCell>
        <mxCell id="zYAFex58_-Hg5FmRaFq3-312" style="edgeStyle=orthogonalEdgeStyle;rounded=0;orthogonalLoop=1;jettySize=auto;html=1;exitX=0.5;exitY=0;exitDx=0;exitDy=0;entryX=0.5;entryY=1;entryDx=0;entryDy=0;labelBackgroundColor=none;strokeColor=#457B9D;fontColor=default;" edge="1" parent="1" source="zYAFex58_-Hg5FmRaFq3-311" target="zYAFex58_-Hg5FmRaFq3-130">
          <mxGeometry relative="1" as="geometry" />
        </mxCell>
        <mxCell id="zYAFex58_-Hg5FmRaFq3-311" value="Has " style="shape=rhombus;perimeter=rhombusPerimeter;whiteSpace=wrap;html=1;align=center;labelBackgroundColor=none;fillColor=#A8DADC;strokeColor=#457B9D;fontColor=#1D3557;" vertex="1" parent="1">
          <mxGeometry x="1180" y="505" width="120" height="60" as="geometry" />
        </mxCell>
        <mxCell id="zYAFex58_-Hg5FmRaFq3-313" value="" style="endArrow=none;html=1;rounded=0;entryX=0.75;entryY=1;entryDx=0;entryDy=0;exitX=0.5;exitY=1;exitDx=0;exitDy=0;labelBackgroundColor=none;strokeColor=#457B9D;fontColor=default;" edge="1" parent="1" source="zYAFex58_-Hg5FmRaFq3-311" target="zYAFex58_-Hg5FmRaFq3-290">
          <mxGeometry relative="1" as="geometry">
            <mxPoint x="180" y="620" as="sourcePoint" />
            <mxPoint x="340" y="620" as="targetPoint" />
            <Array as="points">
              <mxPoint x="1240" y="620" />
              <mxPoint x="1060" y="620" />
            </Array>
          </mxGeometry>
        </mxCell>
        <mxCell id="zYAFex58_-Hg5FmRaFq3-317" style="edgeStyle=orthogonalEdgeStyle;rounded=0;orthogonalLoop=1;jettySize=auto;html=1;exitX=0.5;exitY=1;exitDx=0;exitDy=0;entryX=0.5;entryY=0;entryDx=0;entryDy=0;labelBackgroundColor=none;strokeColor=#457B9D;fontColor=default;" edge="1" parent="1" source="zYAFex58_-Hg5FmRaFq3-314" target="zYAFex58_-Hg5FmRaFq3-131">
          <mxGeometry relative="1" as="geometry" />
        </mxCell>
        <mxCell id="zYAFex58_-Hg5FmRaFq3-314" value="Has " style="shape=rhombus;perimeter=rhombusPerimeter;whiteSpace=wrap;html=1;align=center;labelBackgroundColor=none;fillColor=#A8DADC;strokeColor=#457B9D;fontColor=#1D3557;" vertex="1" parent="1">
          <mxGeometry x="660.5" y="670" width="120" height="60" as="geometry" />
        </mxCell>
        <mxCell id="zYAFex58_-Hg5FmRaFq3-318" value="" style="endArrow=none;html=1;rounded=0;exitX=0.031;exitY=0.835;exitDx=0;exitDy=0;exitPerimeter=0;entryX=0.5;entryY=0;entryDx=0;entryDy=0;labelBackgroundColor=none;strokeColor=#457B9D;fontColor=default;" edge="1" parent="1" source="zYAFex58_-Hg5FmRaFq3-290" target="zYAFex58_-Hg5FmRaFq3-314">
          <mxGeometry relative="1" as="geometry">
            <mxPoint x="180" y="870" as="sourcePoint" />
            <mxPoint x="340" y="870" as="targetPoint" />
            <Array as="points">
              <mxPoint x="720" y="540" />
            </Array>
          </mxGeometry>
        </mxCell>
      </root>
    </mxGraphModel>
  </diagram>
</mxfile>
